<?xml version="1.0" encoding="utf-8"?>
<!-- Generator: Adobe Illustrator 15.1.0, SVG Export Plug-In . SVG Version: 6.00 Build 0)  -->
<!DOCTYPE svg PUBLIC "-//W3C//DTD SVG 1.1//EN" "http://www.w3.org/Graphics/SVG/1.1/DTD/svg11.dtd">
<svg version="1.1" id="Layer_1" xmlns="http://www.w3.org/2000/svg" xmlns:xlink="http://www.w3.org/1999/xlink" x="0px" y="0px"
	 width="612px" height="792px" viewBox="-193.5 -284 612 792" enable-background="new -193.5 -284 612 792" xml:space="preserve">
<path d="M-115.467-164.39h190.01c8.223,0,16.454,1.439,23.936,4.852c5.077,2.313,9.813,5.342,14.021,9.141
	c6.81-6.08,14.98-10.171,23.715-12.536c3.923-1.065,8.005-1.457,12.075-1.457h194.46c6.018,0,12.005,0.919,17.737,2.768
	c5.933,1.915,11.623,4.471,16.237,8.783c5.118,4.567,8.141,10.614,10.306,16.996c2.085,6.141,3.095,12.598,3.095,19.083V-12.56
	c0,5.374-0.713,10.752-2.47,15.826c-2.545,7.36-6.438,14.193-11.476,20.24c5.285,6.281,9.2,13.494,11.7,21.223
	c1.565,4.84,2.245,9.927,2.245,15.014V160.69c0,13.329-3.765,26.537-11.593,37.324c-0.652,0.897-1.327,1.78-2.029,2.65
	c2.932,3.497,5.447,7.285,7.522,11.295c4.182,8.072,6.1,17.125,6.1,26.22v101.5c0,8.415-1.385,16.846-4.725,24.573
	c-2.088,4.835-4.875,9.302-8.923,12.877c-4.56,4.235-10.152,6.686-16.018,8.42c-6.792,2.01-13.885,2.833-20.968,2.833H151.705
	c-8.455,0-16.928-1.397-24.686-4.768c-5.267-2.295-10.175-5.351-14.468-9.346c-4.216,3.921-9.014,6.978-14.165,9.293
	c-7.559,3.397-15.859,4.822-24.147,4.822h-193.355c-3.241,0-6.476-0.353-9.63-1.095c-8.271-1.94-16.549-4.615-22.805-10.6
	c-6.046-5.378-9.241-12.75-11.474-20.375c-1.417-4.838-2.099-9.858-2.099-14.896V236.775c0-5.25,0.699-10.508,2.36-15.49
	c2.539-7.61,6.479-14.68,11.757-20.845c-4.91-5.44-8.325-11.785-10.648-18.568c-2.466-7.188-3.469-14.787-3.459-22.385l0.11-102.445
	c0.002-2.098,0.21-4.199,0.707-6.24c2.421-9.991,6.282-19.604,13.511-27.147c-7.575-8.762-12.437-19.349-14.337-30.775v-108.205
	c0-8.407,1.385-16.832,4.717-24.554c2.081-4.822,4.859-9.285,8.881-12.861c3.64-3.457,7.958-5.807,12.549-7.575
	C-131.499-163.192-123.479-164.39-115.467-164.39"/>
<path fill="#A44B23" d="M-144.913-16.345c0.323-35.439-0.197-70.9,0.223-106.338c-0.172-9.277,5.797-18.757,15.275-20.58
	c3.703-0.84,7.504-0.914,11.254-1.037c64.95,0.124,129.925,0.049,194.877,0.049c7.132,0,15.176,0.766,20.26,6.441
	c5.404,5.232,5.653,13.276,5.775,20.309c-0.171,34.523-0.123,69.074-0.025,103.597c-0.146,7.575-0.517,16.41-6.786,21.669
	c-5.107,5.032-12.585,5.475-19.324,5.475c-64.924-0.074-129.851-0.098-194.754,0.026c-6.81-0.124-14.485-0.048-19.741-5.085
	C-144.839,2.086-144.961-7.856-144.913-16.345z M364.018-138.23c-6.74-6.686-16.883-5.973-25.617-6.095
	c-65.668,0.445-131.386-0.442-197.051,0.42c-11.157,0.442-19.25,10.785-18.71,21.616c-0.564,33.612,0.103,67.271-0.27,100.907
	c0.1,7.772-0.44,15.919,2.495,23.321c3.6,7.921,12.51,11.671,20.854,11.227c65.862,0.1,131.726-0.071,197.59,0.1
	c6.785-0.026,14.313-0.371,19.69-5.107c5.775-4.712,7.16-12.536,7.06-19.594c0-35.313-0.119-70.628,0.053-105.941
	C370.185-124.683,369.593-132.825,364.018-138.23z M-37.861,38.905c-8.486-7.602-20.729-5.134-31.143-5.579
	c-20.111,0.743-40.371-1.257-60.385,1.014c-10.415,2.245-15.794,13.202-15.154,23.17c0.1,37.164-0.171,74.35,0.124,111.515
	c-0.469,10.564,7.626,20.755,18.485,21.272c20.655,0.912,41.357-0.073,62.037,0.397c8.812-0.226,19.176,1.135,26.16-5.53
	c6.07-5.305,6.219-13.867,6.341-21.295c-0.074-34.62-0.074-69.243,0-103.84C-31.518,52.649-31.789,44.111-37.861,38.905z
	 M229.225,185.59c6.365-5.212,7.28-14.02,7.205-21.695c-0.1-34.522-0.1-69.047,0-103.571c0.075-7.749-0.742-16.706-7.305-21.887
	c-5.205-4.688-12.535-5.085-19.175-5.11c-65,0.1-130,0.125-195.001,0c-3.75,0.1-7.575,0.151-11.229,1.063
	c-9.3,2.096-14.83,11.499-14.682,20.631c-0.396,35.413,0.098,70.847-0.222,106.26c0.123,7.825-0.149,16.904,5.675,22.979
	c4.565,5.03,11.574,6.485,18.09,6.391c66.629,0.024,133.259,0.047,199.889-0.028C218.37,190.598,224.732,189.81,229.225,185.59z
	 M260.688,182.575c4.048,5.85,11.402,8.145,18.237,8.022c20.583,0.172,41.19-0.147,61.771,0.098
	c7.475-0.125,15.915,0.274,21.938-4.985c6.342-5.3,7.377-14.115,7.255-21.888c-0.101-34.598-0.101-69.197,0-103.795
	c0.098-7.65-0.938-16.361-7.23-21.566c-7.433-6.344-17.817-4.886-26.825-5.159c-20.412,0.495-40.867-0.594-61.225,0.469
	c-10.688,0.791-18.532,10.982-17.692,21.445c-0.25,35.339,0.145,70.649-0.15,105.989
	C256.965,168.385,256.152,176.433,260.688,182.575z M95.868,216.213c-5.824-5.453-14.313-5.133-21.743-5.232
	c-47.674,0.347-95.351-0.443-143.004,0.1c-20.311,0.542-40.719-1.11-60.905,0.689c-9.574,2-15.175,11.82-14.93,21.098
	c-0.371,34.551,0.1,69.101-0.196,103.623c0.123,8.242-0.617,17.547,5.01,24.357c5.058,6.563,13.99,7.502,21.69,7.455
	c64.975-0.128,129.976-0.027,194.953-0.053c7.083-0.075,15.104-0.912,20.162-6.518c5.255-5.229,5.578-13.173,5.798-20.133
	c-0.049-34.55-0.1-69.1,0.026-103.645C102.629,230.355,102.26,221.47,95.868,216.213z M370.055,235.265
	c0.125-6.987-1.332-14.76-7.007-19.425c-4.713-4.242-11.278-4.982-17.348-4.982c-65.815,0.048-131.605,0.098-197.42-0.022
	c-3.775,0.12-7.623,0.168-11.275,1.18c-9.353,2.226-14.707,11.726-14.388,20.905c-0.495,34.55,0.098,69.1-0.247,103.646
	c0.2,8.489-0.492,18.46,5.875,25.074c5.055,5.522,13.05,6.315,20.107,6.365c64.978,0.05,129.978,0.05,194.978,0.295
	c7.65,0,16.51-0.84,21.715-7.229c4.715-5.355,5.035-12.808,5.061-19.57C369.935,306.09,370.03,270.675,370.055,235.265z"/>
</svg>
