<?xml version="1.0" encoding="utf-8"?>
<!-- Generator: Adobe Illustrator 22.0.0, SVG Export Plug-In . SVG Version: 6.00 Build 0)  -->
<svg version="1.1" id="Capa_1" xmlns="http://www.w3.org/2000/svg" xmlns:xlink="http://www.w3.org/1999/xlink" x="0px" y="0px"
	 viewBox="0 0 841.8897705 1190.5511475" style="enable-background:new 0 0 841.8897705 1190.5511475;" xml:space="preserve">
<style type="text/css">
	.st0{fill:#020203;}
	.st1{fill:#C15525;}
	.st2{fill:#B17F4A;}
	.st3{fill:#DBBE60;}
	.st4{fill:#098036;}
	.st5{fill:#13A538;}
</style>
<rect x="190.1086121" y="372.1064453" class="st0" width="455.4987488" height="58.149601"/>
<path class="st1" d="M590.90802,409.9282227v-35.3623352h32.2858887
	c1.4014893,36.4746399-2.2759399,40.2957458-5.4324341,42.2521973c-1.6135864,1.0002136-8.977417-1.3981628-12.977356-3.2163391
	C600.0444946,411.4474182,594.6692505,409.5933533,590.90802,409.9282227z M615.7459106,423.9202576
	c-0.2519531-2.3608093-5.1261597-2.9167175-10.0671387-4.8590393c-4.7631836-1.872406-7.3012695-4.8404541-14.770752-4.7010498
	v13.8606873h23.7143555C615.3900146,427.4298096,615.9706421,426.0264587,615.7459106,423.9202576z M643.8428955,397.6066895
	c-0.8709106-1.1753845-1.9971313-1.5917664-2.5632324-1.6169128c-4.9020996-0.2180481-13.2333984-0.9826965-13.5609741,0.393158
	c-0.0655518,19.8502502-7.5427856,24.9951782-7.7733765,26.6716614c-0.0913086,0.6645203-0.0289307,3.655304,1.8294067,5.1662598
	h22.0681763V397.6066895z M628.8625488,390.9783936c2.9884644,1.3821106,11.4671021,2.3981323,14.9803467,0.9562988v-17.3688049
	h-16.6343994c-0.0454712,2.5483398-0.175293,5.9305725-0.1803589,6.7602539
	C627.0241699,382.0094299,626.0402832,389.6730347,628.8625488,390.9783936z"/>
<path class="st1" d="M419.8700562,409.9282227v-35.3623352h32.2858887
	c1.4014893,36.4746399-2.2759094,40.2957458-5.432373,42.2521973c-1.6136475,1.0002136-8.9774475-1.3981628-12.9773865-3.2163391
	C429.0065613,411.4474182,423.6313477,409.5933533,419.8700562,409.9282227z M444.7079468,423.9202576
	c-0.2519226-2.3608093-5.1261292-2.9167175-10.0671387-4.8590393c-4.7631531-1.872406-7.3012695-4.8404541-14.770752-4.7010498
	v13.8606873h23.714386C444.3520813,427.4298096,444.9327087,426.0264587,444.7079468,423.9202576z M472.8049927,397.6066895
	c-0.8709412-1.1753845-1.9971313-1.5917664-2.5632324-1.6169128c-4.9021606-0.2180481-13.2333984-0.9826965-13.5610046,0.393158
	c-0.0655518,19.8502502-7.5427551,24.9951782-7.7733765,26.6716614c-0.0912781,0.6645203-0.0289001,3.655304,1.8293762,5.1662598
	h22.0682373V397.6066895z M457.824646,390.9783936c2.9884033,1.3821106,11.467041,2.3981323,14.9803467,0.9562988v-17.3688049
	h-16.6343994c-0.0455017,2.5483398-0.1753235,5.9305725-0.1803894,6.7602539
	C455.9862671,382.0094299,455.0023804,389.6730347,457.824646,390.9783936z M490.7588196,413.6017456
	c3.999939,1.8181763,11.3637695,4.2165527,12.9773865,3.2163391c3.1564941-1.9564514,6.8338928-5.7775574,5.4324036-42.2521973
	h-32.2858887v35.3623352C480.6439819,409.5933533,486.0191956,411.4474182,490.7588196,413.6017456z M501.7205811,423.9202576
	c-0.2519226-2.3608093-5.1260986-2.9167175-10.0671082-4.8590393c-4.7631836-1.872406-7.3012695-4.8404541-14.770752-4.7010498
	v13.8606873h23.714386C501.3647461,427.4298096,501.9453735,426.0264587,501.7205811,423.9202576z M529.817627,397.6066895
	c-0.8709106-1.1753845-1.9971313-1.5917664-2.5632324-1.6169128c-4.9021606-0.2180481-13.2333984-0.9826965-13.5609741,0.393158
	c-0.0655518,19.8502502-7.5427856,24.9951782-7.773407,26.6716614c-0.0912781,0.6645203-0.0289001,3.655304,1.8294067,5.1662598
	h22.0682068V397.6066895z M514.8372803,390.9783936c2.9884033,1.3821106,11.467041,2.3981323,14.9803467,0.9562988v-17.3688049
	h-16.6343994c-0.0454712,2.5483398-0.175354,5.9305725-0.1803589,6.7602539
	C512.9989014,382.0094299,512.0150146,389.6730347,514.8372803,390.9783936z M547.7714844,413.6017456
	c3.999939,1.8181763,11.3637085,4.2165527,12.977356,3.2163391c3.1564941-1.9564514,6.8339233-5.7775574,5.432373-42.2521973
	h-32.2858276v35.3623352C537.6566162,409.5933533,543.0318604,411.4474182,547.7714844,413.6017456z M558.7332153,423.9202576
	c-0.2518921-2.3608093-5.1260986-2.9167175-10.0671387-4.8590393c-4.7631226-1.872406-7.3012695-4.8404541-14.7706909-4.7010498
	v13.8606873h23.7143555C558.3773804,427.4298096,558.9580078,426.0264587,558.7332153,423.9202576z M586.8302612,397.6066895
	c-0.8709106-1.1753845-1.9971313-1.5917664-2.5632324-1.6169128c-4.9021606-0.2180481-13.2333984-0.9826965-13.5609741,0.393158
	c-0.0655518,19.8502502-7.5427856,24.9951782-7.7733765,26.6716614c-0.0913086,0.6645203-0.0289307,3.655304,1.8293457,5.1662598
	h22.0682373V397.6066895z M571.8499146,390.9783936c2.9884644,1.3821106,11.467041,2.3981323,14.9803467,0.9562988v-17.3688049
	h-16.6343994c-0.0454712,2.5483398-0.175293,5.9305725-0.1803589,6.7602539
	C570.0115356,382.0094299,569.0276489,389.6730347,571.8499146,390.9783936z M205.6956177,413.6017456
	c3.999939,1.8181763,11.363739,4.2165527,12.9773712,3.2163391c3.1564789-1.9564514,6.8338928-5.7775574,5.4323883-42.2521973
	h-32.2858734v35.3623352C195.58078,409.5933533,200.9559937,411.4474182,205.6956177,413.6017456z M216.6573792,423.9202576
	c-0.2519379-2.3608093-5.1261292-2.9167175-10.0671387-4.8590393c-4.7631531-1.872406-7.3012543-4.8404541-14.7707367-4.7010498
	v13.8606873h23.7143707C216.3015137,427.4298096,216.8821411,426.0264587,216.6573792,423.9202576z M244.7544098,397.6066895
	c-0.8709412-1.1753845-1.9971161-1.5917664-2.5632172-1.6169128c-4.9021606-0.2180481-13.2334137-0.9826965-13.5610046,0.393158
	c-0.0655518,19.8502502-7.5427704,24.9951782-7.7733765,26.6716614c-0.0912933,0.6645203-0.0289001,3.655304,1.8293762,5.1662598
	h22.068222V397.6066895z M229.7740631,390.9783936c2.9884338,1.3821106,11.4670563,2.3981323,14.9803467,0.9562988v-17.3688049
	h-16.6343994c-0.0454865,2.5483398-0.1753235,5.9305725-0.1803741,6.7602539
	C227.9356842,382.0094299,226.9518127,389.6730347,229.7740631,390.9783936z M262.708252,413.6017456
	c3.999939,1.8181763,11.3637695,4.2165527,12.9773865,3.2163391c3.1564636-1.9564514,6.8338928-5.7775574,5.432373-42.2521973
	h-32.2858734v35.3623352C252.5934143,409.5933533,257.9686279,411.4474182,262.708252,413.6017456z M273.6700134,423.9202576
	c-0.2519226-2.3608093-5.1261292-2.9167175-10.0671387-4.8590393c-4.7631531-1.872406-7.301239-4.8404541-14.7707367-4.7010498
	v13.8606873h23.7143707C273.3141479,427.4298096,273.8947754,426.0264587,273.6700134,423.9202576z M301.7670593,397.6066895
	c-0.8709412-1.1753845-1.9971313-1.5917664-2.5632324-1.6169128c-4.9021606-0.2180481-13.2333984-0.9826965-13.5610046,0.393158
	c-0.0655518,19.8502502-7.5427551,24.9951782-7.7733765,26.6716614c-0.0912781,0.6645203-0.0289001,3.655304,1.8293762,5.1662598
	h22.0682373V397.6066895z M286.7867126,390.9783936c2.9884338,1.3821106,11.467041,2.3981323,14.9803467,0.9562988v-17.3688049
	h-16.6343994c-0.0455017,2.5483398-0.1753235,5.9305725-0.1803894,6.7602539
	C284.9483337,382.0094299,283.964447,389.6730347,286.7867126,390.9783936z M319.7208862,413.6017456
	c3.999939,1.8181763,11.3637695,4.2165527,12.9773865,3.2163391c3.1564941-1.9564514,6.8338928-5.7775574,5.4324036-42.2521973
	h-32.2858887v35.3623352C309.6060486,409.5933533,314.9812622,411.4474182,319.7208862,413.6017456z M330.6826782,423.9202576
	c-0.2519531-2.3608093-5.1261292-2.9167175-10.0671387-4.8590393c-4.7631531-1.872406-7.3012695-4.8404541-14.770752-4.7010498
	v13.8606873h23.714386C330.3268127,427.4298096,330.9074402,426.0264587,330.6826782,423.9202576z M358.7796936,397.6066895
	c-0.8709412-1.1753845-1.9971313-1.5917664-2.5632019-1.6169128c-4.9021606-0.2180481-13.233429-0.9826965-13.5610046,0.393158
	c-0.0655518,19.8502502-7.5427856,24.9951782-7.7733765,26.6716614c-0.0913086,0.6645203-0.0289307,3.655304,1.8293762,5.1662598
	h22.0682068V397.6066895z M343.7993469,390.9783936c2.9884338,1.3821106,11.4670715,2.3981323,14.9803467,0.9562988v-17.3688049
	h-16.6343994c-0.0455017,2.5483398-0.1753235,5.9305725-0.1803894,6.7602539
	C341.960968,382.0094299,340.9770813,389.6730347,343.7993469,390.9783936z M376.733551,413.6017456
	c3.999939,1.8181763,11.363739,4.2165527,12.977356,3.2163391c3.1564941-1.9564514,6.8338928-5.7775574,5.4324036-42.2521973
	h-32.2858887v35.3623352C366.6187134,409.5933533,371.993927,411.4474182,376.733551,413.6017456z M387.6953125,423.9202576
	c-0.2519226-2.3608093-5.1261292-2.9167175-10.0671387-4.8590393c-4.7631531-1.872406-7.3012695-4.8404541-14.770752-4.7010498
	v13.8606873h23.714386C387.339447,427.4298096,387.9200745,426.0264587,387.6953125,423.9202576z M415.7923279,397.6066895
	c-0.8709106-1.1753845-1.9971008-1.5917664-2.5632019-1.6169128c-4.9021606-0.2180481-13.233429-0.9826965-13.5610046,0.393158
	c-0.0655518,19.8502502-7.5427856,24.9951782-7.7733765,26.6716614c-0.0913086,0.6645203-0.0289001,3.655304,1.8293762,5.1662598
	h22.0682068V397.6066895z M400.8119812,390.9783936c2.9884338,1.3821106,11.4670715,2.3981323,14.9803467,0.9562988v-17.3688049
	h-16.6343994c-0.0454712,2.5483398-0.1753235,5.9305725-0.1803589,6.7602539
	C398.9736023,382.0094299,397.9897461,389.6730347,400.8119812,390.9783936z"/>
<path class="st2" d="M642.2957764,113.7823334l-448.6218262-0.0057373c-3.0362396,0-6.2988281,1.0106201-6.5587311,5.1092987
	v73.7575684H648.600769v-73.6229401C648.600769,117.7815781,646.274231,113.7823334,642.2957764,113.7823334z"/>
<path class="st3" d="M246.500061,152.7563629h-8.0327148v-12.4209747h8.0327148V152.7563629z M232.6564331,146.5973053h-7.8618164
	v7.644165h7.8618164V146.5973053z M273.5036926,140.3353882h-9.2290955v11.2058716h9.2290955V140.3353882z M266.1546021,157.3467102
	h-4.1018066v8.100647h4.1018066V157.3467102z M307.7384033,146.5973053h-14.0674438v11.1126556h14.0674438V146.5973053z
	 M220.9756165,157.7099609h-13.9555359v11.0242615h13.9555359V157.7099609z M203.2600861,143.7106476h-8.5454559v9.0457153
	h8.5454559V143.7106476z M252.3109741,170.0377045h-9.8272705v10.8008575h9.8272705V170.0377045z M282.0491333,176.2481995
	h-9.9127197v9.3157349h9.9127197V176.2481995z M311.2745667,168.7342224h-11.963623v12.1043396h11.963623V168.7342224z
	 M333.4927368,151.0012207h-6.3236084v10.395813h6.3236084V151.0012207z M343.0636597,168.7342224h-11.6218262v7.5139771h11.6218262
	V168.7342224z M374.3399963,154.2414703h-16.2363586v14.4927521h16.2363586V154.2414703z M402.1899719,141.3256226h-14.088623
	v12.9158478h14.088623V141.3256226z M400.3814392,174.6244507h-13.9462891v12.2881317h13.9462891V174.6244507z
	 M364.6217651,179.5679474h-6.5181274v7.344635h6.5181274V179.5679474z M414.6853027,156.1991272h-6.4367371v11.2219391h6.4367371
	V156.1991272z M433.9955139,167.4210663h-13.9462585v13.3474426h13.9462585V167.4210663z M447.5285034,143.5510254h-13.5329895
	v10.6904449h13.5329895V143.5510254z M455.09375,174.0947876h-6.0791626v11.2641144h6.0791626V174.0947876z
	 M465.4640503,157.6753082h-7.688324v6.0734406h7.688324V157.6753082z M483.7014771,166.2911224h-8.4035339v8.3333282h8.4035339
	V166.2911224z M486.7410583,143.5510254h-11.4431152v6.4971619h11.4431152V143.5510254z M510.3424377,173.2120209h-13.4098816
	v13.7005615h13.4098816V173.2120209z M514.097229,150.0481873h-8.9399414v7.062149h8.9399414V150.0481873z M201.1074677,174.2670898
	h-8.4042206v6.6389771h8.4042206V174.2670898z M220.9756165,173.1436462h-6.9777679v11.0097809h6.9777679V173.1436462z
	 M234.657074,180.838562h-5.9315491v7.8314209h5.9315491V180.838562z M538.286377,147.7979431h-10.343689v19.2675629h10.343689
	V147.7979431z M536.3708496,179.4734039h-8.4281616v9.196579h8.4281616V179.4734039z M558.079834,173.2120209h-12.0037842
	v10.8596649h12.0037842V173.2120209z M578.3840942,173.2120209h-8.8112793v11.3052521h8.8112793V173.2120209z
	 M578.3840942,144.9733887h-14.3023682v14.4254456h14.3023682V144.9733887z M605.9672852,155.9690094h-12.7699585v15.6359711
	h12.7699585V155.9690094z M601.4978027,181.0874329h-6.3850098v7.58255h6.3850098V181.0874329z M619.3757935,157.1103363h-6.3850098
	v7.3323517h6.3850098V157.1103363z M611.8414917,140.0303955h-12.2592163v9.6842194h12.2592163V140.0303955z
	 M640.7016602,146.5973053h-10.2160034v11.3892365h10.2160034V146.5973053z M629.3407593,173.2120209h-12.5189819v9.8894653
	h12.5189819V173.2120209z M643.0128174,170.4826202h-5.4279175v11.5851593h5.4279175V170.4826202z"/>
<path class="st4" d="M642.2957764,113.7822876l-448.6218262-0.0056763c-3.0362549,0-6.2988281,1.0106201-6.5587158,5.1092529
	v0.2827759v6.7710571l5.2318115,10.8458862l10.3994141-9.6047363l8.5217285,9.7225342l6.7562256-12.0053711l8.5654297,8.5893555
	l5.8059082-6.7785645l6.0703735,11.4656372l8.7731934-12.1247559l5.6895752,8.1962891l6.0638428-7.8831177l13.8436279,11.2645264
	l6.6553345-12.7203369l4.723938,9.0054932l14.3234863-5.4356079l4.6100464,8.7473755l6.3926392-12.6477051l9.3339233,13.380188
	l6.116394-8.7874146l2.897644,6.7662964l12.1507568-12.128418l10.3875732,11.8140869l5.1819458-6.3554688l5.7138672,7.2734985
	l9.0228882-11.9677734l5.6866455,12.4636841l9.2483521-9.3765869l9.0754395,9.09375l8.5246582-12.2731323l9.2052612,9.6147461
	l6.0750732-9.1867676l9.2206421,9.1421509l5.6884155-5.5671997l5.6329956,7.1706543l9.5924683-11.286377l5.2315674,10.7368774
	l10.7972412-8.807251l9.4921265,12.1299438l5.0480347-14.3383179l11.8514404,9.2922974l2.9897461-4.4821777l5.4942017,7.8756104
	l9.2678833-12.5609131l7.2278442,10.3242188l4.6265259-8.3113403l14.2485962,10.4542847l6.8406372-11.8765259l5.0603638,9.8228149
	l15.2821045-6.1295166l4.7198486,7.7700806l5.7350464-11.8256226l10.0169067,12.4959717l4.4234619-7.0119629l4.2759399,7.3624878
	l10.9949951-13.3258057l8.6019897,10.0872803l4.4960938-4.5493774c4.27948,6.2059937,4.7387085,6.3348389,5.3088989,6.4953003
	c1.2006226,0.3384399,1.5465088,0.4321899,13.4729614-12.399231l10.1201782,7.3852539l4.6793823-2.2328491v-2.9446411v-6.7828979
	C648.600769,117.7815552,646.274231,113.7822876,642.2957764,113.7822876z"/>
<path class="st5" d="M202.9920044,123.1621933l7.7095184,8.7954483l6.6098633-11.7461548l9.0978394,9.1231232l6.606308-7.7134552
	l5.8649292,11.0780487l8.4125519-11.6263199l5.7675323,8.3086014l5.3938904-7.0117493l13.3666992,10.8764954l7.6670227-14.6537476
	l6.2562866,11.9276733l14.3187866-5.4333649l3.0280762,5.7447205l6.0195923-11.9086075l9.7624817,13.9939041l6.7727661-9.7305527
	l3.3084717,7.7254868l11.2405396-11.2194519l10.1408386,11.5338287l5.3201294-6.5259018l5.6158142,7.1481247l9.7406616-12.9204254
	l5.9900513,13.1275024l8.2649841-8.3803024l8.6468811,8.6630936l8.5718994-12.3408203l9.1415405,9.5487976l6.0172119-9.0977936
	l9.7524719,9.6701355l5.9877014-5.8607941l5.4169006,6.8946686l10.2146606-12.0194168l5.6105042,11.5140152l10.2128601-8.3299103
	l7.927948,10.1304169l4.5887451-13.0357437l12.609375,9.8859787l3.6815186-5.5195923l5.6252747,8.0636749l9.2631226-12.5549088
	l6.8560181,9.7919693l3.8981323-7.0034637l14.289856,10.4848938l7.9846191-13.8640442l6.4298096,12.4801941l15.1085815-6.0593414
	l3.0634766,5.044281l5.3844604-11.1028748l10.3675537,12.9327087l4.8425903-7.6773453l4.6182251,7.9516068l10.5015259-12.7276382
	l8.8180542,10.3407516l4.7735596-4.8304291c0,0,4.461853,6.4501801,5.5083618,7.812973
	c2.2642822-2.1620178,12.3980713-12.9575272,12.3980713-12.9575272l10.9070435,7.9588776l4.3145752-2.0590973v-6.7828903
	c0-1.238945-2.3265381-5.2381897-6.3049927-5.2381897l-448.6218262-0.0057373c-3.0362396,0-6.2988281,1.0106201-6.5587311,5.1092987
	v0.2827606l6.2258453,12.9068146L202.9920044,123.1621933z"/>
<path class="st4" d="M644.2861938,127.8625107l-10.9070435-7.9588776c0,0-10.1337891,10.7955093-12.3980713,12.9575272
	c-1.0465088-1.362793-5.5083618-7.812973-5.5083618-7.812973l-4.7735596,4.8304291l-8.8180542-10.3407516l-10.5015259,12.7276382
	l-4.6182251-7.9516068l-4.8425903,7.6773453l-10.3675537-12.9327087l-5.3844604,11.1028748l-3.0634766-5.044281
	l-15.1085815,6.0593414l-6.4298096-12.4801941l-7.9846191,13.8640442l-14.289856-10.4848938l-3.8981323,7.0034637
	l-6.8560181-9.7919693l-9.2631226,12.5549088l-5.6252747-8.0636749l-3.6815186,5.5195923l-12.609375-9.8859787
	l-4.5887451,13.0357437l-7.927948-10.1304169l-10.2128601,8.3299103l-5.6105042-11.5140152l-10.2146606,12.0194168
	l-5.4169006-6.8946686l-5.9877014,5.8607941l-9.7524719-9.6701355l-6.0172119,9.0977936l-9.1415405-9.5487976l-8.5718994,12.3408203
	l-8.6468811-8.6630936l-8.2649841,8.3803024l-5.9900513-13.1275024l-9.7406616,12.9204254l-5.6158142-7.1481247
	l-5.3201294,6.5259018l-10.1408386-11.5338287l-11.2405396,11.2194519l-3.3084717-7.7254868l-6.7727661,9.7305527
	l-9.7624817-13.9939041l-6.0195923,11.9086075l-3.0280762-5.7447205l-14.3187866,5.4333649l-6.2562866-11.9276733
	l-7.6670227,14.6537476l-13.3666992-10.8764954l-5.3938904,7.0117493l-5.7675323-8.3086014l-8.4125519,11.6263199
	l-5.8649292-11.0780487l-6.606308,7.7134552l-9.0978394-9.1231232l-6.6098633,11.7461548l-7.7095184-8.7954483l-9.6509399,8.9132767
	l-6.2258453-12.9068146v6.7710419l5.231842,10.845871l10.3993835-9.6047058l8.5217438,9.7225342l6.7562408-12.0053787
	l8.5654144,8.5893784l5.8059082-6.778595l6.070343,11.4656219l8.7731934-12.1247025l5.689621,8.1962814l6.063858-7.8831635
	l13.8436279,11.2645721l6.655304-12.7203674l4.723938,9.0055389l14.3235168-5.4356079l4.6100159,8.7473145l6.3926086-12.6476669
	l9.3339539,13.3802109l6.116394-8.7874451l2.897644,6.7663116l12.1507263-12.1284637l10.3875732,11.8141022l5.1820068-6.355423
	l5.7138062,7.273468l9.0228882-11.9677734l5.686676,12.4636536l9.2483521-9.3765717l9.0754089,9.0937805l8.5247192-12.2731171
	l9.2052612,9.6147308l6.0750732-9.1867905l9.2206116,9.1421738l5.688446-5.5672302l5.6329651,7.1706848l9.5924683-11.2863846
	l5.2315674,10.7368546l10.7972412-8.8072357l9.492157,12.1299744l5.0480042-14.3383636l11.8514404,9.2923279l2.9897156-4.4822083
	l5.4942627,7.8756409l9.2678223-12.5609131l7.2278748,10.3242035l4.6265259-8.3113632l14.2485962,10.4543228l6.8406372-11.8765259
	l5.0603638,9.8228149l15.2821045-6.1295471l4.7198486,7.7701111l5.7350464-11.8256378l10.0169067,12.4960022l4.4234619-7.0120087
	l4.2759399,7.3624725l10.9949951-13.325798l8.6019897,10.0873032l4.4960938-4.549408
	c4.27948,6.2060089,4.7387085,6.3348694,5.3088989,6.4953156c1.2006226,0.3384399,1.5465088,0.4322052,13.4729614-12.3992233
	l10.1201782,7.3852768l4.6793823-2.2328644v-2.9446487L644.2861938,127.8625107z"/>
</svg>
