<?xml version="1.0" encoding="UTF-8" standalone="no"?>
<!-- Generator: Adobe Illustrator 15.1.0, SVG Export Plug-In . SVG Version: 6.00 Build 0)  -->

<svg
   version="1.1"
   id="Layer_1"
   x="0px"
   y="0px"
   width="545.19458"
   height="541.01453"
   viewBox="-89.448 -181.105 545.19458 541.01453"
   enable-background="new -89.448 -181.105 612 792"
   xml:space="preserve"
   sodipodi:docname="castle.svg"
   inkscape:version="1.3.2 (091e20e, 2023-11-25)"
   xmlns:inkscape="http://www.inkscape.org/namespaces/inkscape"
   xmlns:sodipodi="http://sodipodi.sourceforge.net/DTD/sodipodi-0.dtd"
   xmlns="http://www.w3.org/2000/svg"
   xmlns:svg="http://www.w3.org/2000/svg"><defs
   id="defs3" /><sodipodi:namedview
   id="namedview3"
   pagecolor="#ffffff"
   bordercolor="#000000"
   borderopacity="0.25"
   inkscape:showpageshadow="2"
   inkscape:pageopacity="0.0"
   inkscape:pagecheckerboard="0"
   inkscape:deskcolor="#d1d1d1"
   inkscape:zoom="1.3143939"
   inkscape:cx="272.74928"
   inkscape:cy="270.46686"
   inkscape:window-width="1912"
   inkscape:window-height="1554"
   inkscape:window-x="3436"
   inkscape:window-y="28"
   inkscape:window-maximized="0"
   inkscape:current-layer="Layer_1" />
<path
   d="m 454.17655,334.8865 c 0.014,-3.832 -0.106,-31.586 -0.053,-33.701 0.066,-7.011 0.053,-14.004 -0.015,-21.001 -0.132,-11.184 -0.12,-22.356 -0.014,-33.542 0.135,-6.396 0.067,-12.792 0,-19.202 -0.172,-11.877 0.081,-23.778 -0.198,-35.657 l 1.85,-0.146 -1.636,-0.771 c 0.053,-5.918 0.081,-11.835 0,-17.755 -0.146,-11.877 -0.093,-23.727 0.014,-35.604 0.054,-5.16 0.015,-10.321 0.054,-15.479 -0.027,-0.705 -0.054,-2.089 -0.067,-2.782 l -0.026,-0.598 c -0.027,-11.185 -0.121,-22.383 0.039,-33.566 0.039,-13.964 0.092,-27.942 -0.039,-41.907 -0.067,-2.034 -0.121,-4.069 -0.16,-6.104 -10.906,0.04 -21.825,0.026 -32.744,-0.041 0.067,16.052 -0.145,32.092 0.094,48.131 -16.397,-0.027 -32.795,-0.014 -49.208,0.013 0.16,-16.027 0.081,-32.051 0.081,-48.064 -9.189,-0.066 -18.379,0.119 -27.569,-0.146 0.106,-2.128 0.199,-4.243 0.358,-6.371 0.734,-7.035 0.653,-14.137 -0.064,-21.172 -0.252,-11.052 -0.161,-22.118 -0.041,-33.182 -0.013,-7.008 -0.174,-21.04 -0.174,-21.04 0.136,-11.317 0.161,-22.635 -0.012,-33.954 0,0 0.079,-14.071 0.133,-21.106 0,-11.064 -0.239,-22.142 0.146,-33.195 0.944,-6.848 -0.014,-33.46 -0.161,-39.897 -0.053,-2.727 -0.079,-5.439 -0.106,-8.152 -10.956,0.026 -21.891,0.04 -32.834,0.04 0.081,16.092 -0.039,32.185 0.081,48.276 -16.411,-0.026 -32.823,-0.093 -49.234,0.012 0.346,-16.091 0.105,-32.157 0.172,-48.249 -20.095,-0.106 -40.218,-0.106 -60.313,0 0.092,16.106 -0.054,32.198 0.067,48.29 -16.158,-0.186 -32.305,-0.08 -48.463,-0.041 0.054,-6.116 0.041,-12.247 0.027,-18.365 v -2.541 c 0.027,-9.083 0,-18.167 -0.013,-27.237 -20.082,-0.359 -40.191,-0.04 -60.272999,-0.172 0.067,16.092 -0.093,32.197 0.08,48.276 -15.574,0.12 -31.133,-0.253 -46.707,0.173 -0.106,-16.092 -0.133,-32.225 -0.014,-48.331 -8.817,-0.212 -17.622,-0.066 -26.439,-0.106 -0.373,2.687 -0.785,5.36 -0.905,8.086 -0.026,13.299 -0.026,26.599 0.027,39.898 0.014,2.101 0,4.203 -0.013,6.317 -0.04,7.036 -0.04,14.084 0.013,21.12 0.014,1.941 0.014,3.896 0,5.865 -0.066,7.035 -0.066,14.056 0,21.093 0.014,2.113 0.014,4.214 0,6.33 -0.066,7.048 -0.066,14.097 0,21.133 0.014,2.114 0.014,4.216 0,6.317 -0.066,7.075 -0.066,14.137 0,21.212 0.014,1.902 0.014,3.831 0.014,5.759 -0.067,7.049 -0.08,14.097 -0.027,21.146 0.013,2.089 0.027,4.176 0.013,6.265 -0.04,7.035 -0.08,14.07 0,21.106 0.026,2.141 0.067,4.281 0.106,6.423 -11.8099998,0.226 -23.6329998,0.027 -35.443,0.08 0.013,5.372 0.027,10.745 -0.04,16.118 l 0.12,6.678 c -0.08,8.365 -0.187,16.717 0.013,25.082 -0.891,0.32 -44.553,0.2 -46.894,0.173 0.279,-16.039 -0.08,-32.078 0.16,-48.104 -8.844,0.093 -17.701,0.08 -26.546,0.053 -0.079,2.035 -0.146,4.07 -0.199,6.118 -0.093,4.867 -0.053,9.775 -0.066,14.655 0.053,9.044 -0.053,18.102 0.066,27.157 0.026,2.089 0.053,4.177 0,6.265 -0.16,6.345 -0.16,12.489 -0.146,18.832 0.199,2.858 0.226,5.72 0.16,8.59 -0.267,6.305 0.013,12.424 -0.147,18.899 0.16,2.699 0.213,5.4 0.173,8.113 -0.16,6.235 -1.051,12.476 -0.2,18.712 0.2,2.886 0.266,5.771 0.08,8.672 -0.864,6.331 0.067,12.661 0.12,19.005 0.053,2.953 0.053,5.891 -0.026,8.857 -0.147,6.157 -0.106,12.302 -0.041,18.459 0.041,2.673 0.067,5.36 0.027,8.021 -0.093,5.598 -0.093,11.197 -0.04,16.795 0.013,0.64 0.026,1.943 0.04,2.58 0.014,1.929 0.014,3.857 0,5.812 0,7.022 -0.372,14.058 -0.133,21.094 0.067,2.114 0.106,4.241 0.041,6.369 -0.718,7.036 -0.732,14.125 -0.014,21.159 0.12,2.088 0.133,4.164 0.12,6.25 -0.08,6.891 -0.147,13.754 -0.067,20.629 0.026,2.115 0.053,4.242 0.053,6.369 -0.027,1.756 -0.04,3.512 -0.066,5.294 -0.014,5.53 -0.04,11.079 0.133,16.608 0,0.878 0,2.647 -0.014,3.525 H 454.20755 c -0.013,-1.078 -0.04,-3.244 -0.055,-4.322 -0.029,-6.896 0.091,-13.8 0.024,-20.701 z"
   id="path1" />
<path
   fill="#e76113"
   d="m 338.45955,91.1615 c 0.132,6.344 0.105,12.687 0.105,19.031 -16.08,-0.095 -32.159,0.012 -48.227,-0.079 0.055,-6.278 0.137,-12.556 -0.089,-18.819 9.269,0.106 18.538,0 27.821,-0.013 0.002,0 14.019,-0.067 20.39,-0.12 z m -102.392,0 c -0.173,6.302 -0.146,12.635 -0.119,18.937 16.049,0.106 32.117,0.055 48.183,0.055 0,-6.226 0.079,-12.447 -0.216,-18.658 0,0 -18.352,-0.122 -27.209,-0.174 -6.876,-0.082 -13.762,-0.04 -20.639,-0.16 z m -6.306,18.952 c -0.052,-6.278 -0.037,-12.556 -0.012,-18.819 -6.543,-0.025 -21.199,0.294 -21.199,0.294 -9.137,-0.467 -18.273,-0.188 -27.423,-0.307 -0.014,6.276 -0.027,12.541 -0.08,18.832 16.238,0.079 32.478,0.067 48.714,0 z m -54.633,-18.793 c -7.925,0.027 -21.397,0.039 -27.397,-0.106 0,0 -14.469,-0.014 -21.066,0.027 -0.04,6.304 -0.014,12.621 -0.053,18.938 16.079,-0.054 32.145,0 48.21,-0.027 -0.014,-6.172 0.12,-12.662 0.306,-18.832 z m -101.154999,18.832 c 15.481,0.027 30.974999,-0.015 46.467999,0.027 -0.04,-6.332 -0.027,-12.649 -0.027,-18.966 -7.128,0.052 -14.256,-0.082 -21.371999,0.119 0,0 -17.209,0 -25.003,0.026 -0.012,6.266 -0.025,12.516 -0.066,18.794 z m -54.314,-18.952 c -0.053,6.33 -0.041,12.647 -0.08,18.979 13.698,-0.015 27.41,-0.082 41.122,0.027 1.782,-0.081 3.578,-0.173 5.373,-0.268 -0.12,-6.223 0.106,-12.461 -0.213,-18.685 0,-0.002 -18.646,0.158 -27.437,0.078 -6.25,-0.025 -12.515,-0.104 -18.765,-0.131 z m 79.876,-6.316 c 15.985999,0.16 31.957999,0.133 47.916999,0.013 0.386,-13.898 0.532,-27.809 0.133,-41.707 -16.185,0.199 -32.438,-0.306 -48.568999,0.279 0.811,12.861 0.519,41.415 0.519,41.415 z m 354.573999,105.982 c 0.054,-5.918 0.078,-11.835 0,-17.755 -9.162,-0.081 -18.338,-0.081 -27.502,0 0.037,6.249 0.037,12.515 -0.029,18.777 9.097,0.174 18.222,0.493 27.318,-0.106 l 1.847,-0.145 z m 0.014,-105.783 c 0.039,-13.964 0.092,-27.942 -0.039,-41.907 -8.967,0.092 -17.93,0.053 -26.893,0 -0.053,13.911 -0.014,27.822 0.039,41.747 8.965,0.093 17.928,-0.04 26.893,0.16 z m 0,216.099 c 0.066,-7.01 0.053,-14.004 -0.013,-20.999 -9.018,-0.159 -18.023,-0.064 -27.038,-0.213 -0.681,7.115 -0.719,14.284 0.053,21.398 9.005,-0.172 17.993,-0.079 26.998,-0.186 z m -0.04,-182.531 c -9.163,0.066 -18.34,-0.055 -27.503,0.119 0.066,6.265 0.053,12.541 0.027,18.807 9.164,0.08 18.34,0.104 27.516,-0.067 0.053,-5.16 0.014,-10.32 0.053,-15.481 -0.027,-0.704 -0.053,-2.087 -0.067,-2.779 z m -6.183,-8.471 c -0.054,-6.332 -0.042,-12.662 -0.083,-18.992 -6.86,0.106 -13.71,0 -20.574,0.146 -9.174,0.161 -18.35,0.133 -27.514,0.121 -0.069,6.235 -0.082,12.461 -0.093,18.711 16.091,0.014 32.171,-0.053 48.264,0.014 z m 0.039,218.067 c -0.136,-6.941 -0.093,-13.843 -0.082,-20.773 -16.077,0.067 -32.132,0.028 -48.197,0.013 0,6.931 0.04,13.874 -0.038,20.803 7.435,0.757 14.923,0.386 22.356,0.027 8.657,-0.549 17.329,1.302 25.961,-0.07 z m -0.133,-108.763 c 0.039,-6.343 0.039,-12.673 0.039,-19.018 -16.064,-0.053 -32.117,0.04 -48.183,-0.013 -0.053,6.345 -0.095,12.688 0.093,19.018 16.013,-0.093 32.038,-0.106 48.051,0.013 z m 0.066,-54.856 c -0.052,-6.345 0.04,-12.701 -0.133,-19.046 -16.039,0.424 -32.078,-0.187 -48.091,0.333 -0.027,6.236 0.039,12.499 -0.014,18.752 16.081,0.265 32.159,0.718 48.238,-0.039 z m -0.026,109.2 c -0.453,-6.982 0.797,-14.217 -0.533,-21.066 -15.8,-0.452 -31.652,0.026 -47.478,-0.226 -0.306,7.073 -0.146,14.177 -0.16,21.266 16.066,0.012 32.116,-0.055 48.171,0.026 z m -19.804,60.818 c -0.294,0.277 -0.906,0.836 -1.21,1.117 -0.544,6.568 -0.054,13.164 -0.253,19.749 9.191,0.293 18.368,0.226 27.569,0.08 -0.028,-6.899 0.092,-13.806 0.026,-20.707 -8.681,-0.533 -17.448,-0.746 -26.132,-0.239 z m 26.053,-107.207 c -8.924,-0.066 -17.859,0.093 -26.797,-0.134 -0.906,6.29 -0.705,12.674 -0.732,19.02 8.91,0.904 17.887,0.53 26.826,0.371 l 0.703,-0.055 c 0.135,-6.395 0.067,-12.792 0,-19.202 z m -33.766,73.959 c 0.863,-7.117 0.811,-14.338 0.027,-21.453 -16.053,0.265 -32.105,0.067 -48.13,0.119 0.015,7.05 0,14.123 0.015,21.198 16.01,0.054 32.048,-0.17 48.088,0.136 z m -48.103,-163.782 c 16.238,-0.094 32.491,0.146 48.715,-0.12 -0.466,-6.172 0.771,-12.728 -0.665,-18.687 -16.025,-0.277 -32.052,-0.106 -48.077,-0.064 0.08,6.29 0.04,12.579 0.027,18.871 z m 0.014,35.428 c 0,6.304 0.026,12.608 -0.053,18.912 13.231,0.265 26.478,0.026 39.726,0.158 2.964,-0.052 5.984,0.175 8.924,-0.504 0.172,-6.225 0.292,-12.502 -0.531,-18.687 -16.028,0.295 -32.054,0.082 -48.066,0.121 z m 0.026,161.361 c -0.054,7.063 0.038,14.109 -0.106,21.172 16.172,0.2 32.342,0.136 48.527,0.042 0.027,-7.104 0.8,-14.297 -0.53,-21.32 -15.959,0.332 -31.918,0.147 -47.891,0.106 z m 47.891,-87.402 c 1.157,-6.489 1.024,-13.167 0.027,-19.67 -15.959,0.186 -31.945,0.066 -47.905,0.04 -0.039,6.516 -0.067,13.02 0,19.523 15.96,-0.066 31.931,-0.239 47.878,0.107 z m -75.395,-155.697 c 0.053,6.263 0.08,12.528 0,18.818 16.226,0.04 32.464,0.066 48.702,-0.027 -0.027,-6.225 -0.04,-12.436 -0.053,-18.646 -9.166,0.054 -18.314,-0.027 -27.463,-0.106 -7.062,-0.118 -14.123,-0.159 -21.186,-0.039 z m -0.026,216.302 c 0.093,6.809 0.198,13.604 -0.092,20.414 13.537,0.784 27.169,0.333 40.762,0.358 2.646,-0.013 5.599,0.787 7.992,-0.796 0.228,-6.664 -0.092,-13.354 0.106,-20.017 -16.266,-0.081 -32.516,-0.159 -48.768,0.041 z m -0.028,-107.035 c 0.145,6.265 0.091,12.528 0.091,18.779 16.228,0.159 32.439,-0.013 48.649,0.106 -0.025,-6.305 -0.053,-12.596 0.054,-18.898 -16.263,-0.093 -32.529,-0.224 -48.794,0.013 z m 24.339,52.028 c -8.126,0.279 -16.332,-0.691 -24.406,0.651 0.279,6.823 0.173,13.646 0.12,20.469 16.238,0.146 32.477,0.067 48.716,0.04 -0.053,-6.822 -0.12,-13.646 0.105,-20.47 -8.123,-1.368 -16.369,-0.41 -24.535,-0.69 z m -3.086,48.675 c 0.173,-7.089 0.173,-14.162 0,-21.225 -16.026,0 -32.053,0.092 -48.076,-0.055 -0.094,7.117 -0.106,14.206 0.014,21.319 16.01,-0.131 32.036,-0.052 48.062,-0.039 z m -48.024,-128.299 c -0.159,6.357 -0.081,12.716 -0.122,19.085 16.082,0.027 32.16,0.067 48.251,-0.039 -0.026,-6.33 0.041,-12.675 -0.118,-19.017 -16.012,0.053 -32.012,0.144 -48.011,-0.029 z m -0.132,-54.326 c 0.078,6.342 -0.054,12.659 0.094,18.99 16.011,-0.055 32.023,-0.067 48.05,0.014 0.212,-6.331 0.078,-12.662 0.106,-18.991 -16.094,-0.013 -32.172,0.055 -48.25,-0.013 z m 0.173,215.715 c -0.266,7.075 -0.093,14.164 -0.173,21.253 16.078,0.104 32.145,0.078 48.225,0.013 0.065,-7.089 0.104,-14.178 -0.121,-21.266 -15.987,0.146 -31.959,0.187 -47.931,0 z m 47.903,-87.392 c 0.332,-6.543 0.306,-13.086 -0.013,-19.616 -15.96,0.093 -31.905,0.122 -47.865,-0.014 -0.238,6.53 -0.332,13.073 0.015,19.604 15.945,-0.186 31.904,-0.186 47.863,0.026 z m -47.982,-162.117 c 15.999,0.266 32.023,0.065 48.024,0.132 0.038,-13.925 0.106,-27.848 -0.015,-41.773 -16.013,0 -32.011,0 -48.023,0.014 -0.014,13.87 -0.04,27.756 0.014,41.627 z m -0.08,-129.856 c 0.038,7.089 -0.068,14.205 0.187,21.293 8.937,-0.066 17.873,-0.053 26.825,-0.053 -0.014,-7.009 -0.174,-21.041 -0.174,-21.041 -8.938,-0.358 -17.889,-0.053 -26.838,-0.199 z m 0.078,54.341 c -0.092,7.103 -0.12,14.204 0.015,21.307 9.015,-0.081 18.021,-0.04 27.022,-0.053 0.733,-7.036 0.652,-14.137 -0.065,-21.172 -8.992,-0.028 -17.982,0.038 -26.972,-0.082 z m 26.891,136.361 c 0.04,6.196 0.092,12.407 -0.118,18.618 5.146,1.091 10.397,0.771 15.61,0.693 11.107,0.091 22.197,-0.521 33.302,-0.508 -0.212,-6.277 -0.106,-12.553 -0.173,-18.817 -16.209,0.068 -32.41,0.014 -48.621,0.014 z m -26.958,-224.349 c 8.938,-0.053 17.873,0.053 26.813,-0.107 0,0 0.08,-14.071 0.134,-21.106 -8.938,-0.013 -17.877,0.026 -26.813,-0.052 -0.199,7.087 -0.119,14.176 -0.134,21.265 z m 20.775,352.354 c -0.16,-7.063 0.106,-14.124 -0.252,-21.186 -15.974,0.172 -31.933,0.053 -47.905,0.065 -0.122,7.063 -0.04,14.125 -0.082,21.187 16.08,-0.012 32.172,0.118 48.239,-0.066 z m -0.199,-54.169 c 0.227,-6.371 0.132,-12.74 0.132,-19.112 -16.066,0.094 -32.144,-0.026 -48.196,0.106 0.039,6.305 -0.003,12.596 0.066,18.886 15.998,0.065 31.999,-0.145 47.998,0.12 z m -0.094,109.255 c 0.425,-7.102 0.188,-14.23 0.212,-21.347 -16.064,0.148 -32.13,-0.025 -48.183,0.094 0.106,7.089 -0.092,14.178 0.2,21.265 9.377,-1.183 18.763,0.306 28.154,-0.518 6.53,0.054 13.074,0.639 19.617,0.506 z m 0.253,-325.503 c 0.053,-7.142 0.026,-14.284 -0.175,-21.399 -15.959,0.214 -31.902,0.107 -47.862,0.08 -0.106,7.049 0.014,14.111 -0.135,21.16 16.064,0.292 32.118,0.027 48.172,0.159 z m -48.12,142.385 c -0.104,6.463 -0.143,12.951 0.069,19.417 8.14,-0.014 16.276,-0.094 24.415,-0.373 7.796,0.825 15.627,-0.851 23.395,0.519 0.348,-6.568 0.318,-13.139 0.027,-19.682 -15.959,0.331 -31.933,0.145 -47.906,0.119 z m 27.466,-278.81 c 9.004,0.146 18.007,0.08 27.011,0.08 0.945,-6.849 -0.015,-33.461 -0.159,-39.898 -8.872,0.372 -17.836,-0.664 -26.653,0.532 -0.681,13.073 -0.029,26.186 -0.199,39.286 z m 20.494,27.637 c 0.2,-7.116 0.174,-14.229 0.146,-21.345 -6.89,0 -13.766,0.039 -20.654,0.092 -9.136,-0.025 -18.272,0.067 -27.397,0.053 -0.146,6.876 -0.116,13.766 -0.185,20.642 16.012,0.943 32.062,0.079 48.09,0.558 z m -26.839,243.113 c 0.027,-6.278 -0.026,-12.569 0.04,-18.846 -16.252,-0.122 -32.518,-0.189 -48.757,0.039 0.119,6.25 0.055,12.515 0.029,18.777 16.224,0.069 32.462,0.001 48.688,0.03 z m -0.158,163.421 c 0.466,-6.97 0.037,-13.978 0.187,-20.973 h -48.701 c 0.026,7.047 0.026,14.123 -0.015,21.197 16.185,-0.169 32.382,0.308 48.529,-0.224 z m -48.237,33.609 c -0.626,6.94 -0.039,13.91 -0.347,20.879 16.264,0.294 32.529,0.197 48.782,0.041 -0.053,-7.036 0.026,-14.099 -0.08,-21.148 -16.133,0.254 -32.25,-0.239 -48.355,0.228 z m 48.408,-304.065 c 0.039,-7.049 0,-14.097 0.012,-21.145 -7.046,-0.054 -14.095,-0.028 -21.144,-0.028 0.052,7.063 0.013,14.137 -0.016,21.199 7.051,-0.039 14.101,10e-4 21.148,-0.026 z m -21.067,-54.805 c 7.064,-0.572 14.153,1.024 21.16,-0.213 -0.186,-6.81 -0.133,-13.632 -0.054,-20.454 -7.073,-0.133 -14.137,-0.08 -21.211,-0.027 0.121,6.889 0.028,13.791 0.105,20.694 z m 21.136,216.167 c -0.121,-6.29 -0.082,-12.596 -0.082,-18.87 -16.226,0 -32.448,-0.068 -48.662,0.024 0.013,6.266 0.055,12.544 -0.079,18.807 16.263,0.304 32.544,0.239 48.823,0.039 z m -21.2,-133.911 c 6.995,0.053 14.018,0.027 21,-0.52 0.08,-6.888 0.066,-13.791 -0.147,-20.693 -6.981,0.04 -13.964,-0.053 -20.946,0.053 0.038,7.049 -10e-4,14.111 0.093,21.16 z m 21.079,26.851 c -0.028,-6.89 -0.054,-13.765 -0.067,-20.653 -16.092,-0.837 -32.21,-0.387 -48.315,-0.36 0.027,7.01 -0.093,14.005 -0.188,21 16.184,0.092 32.369,0.039 48.57,0.013 z m -7.94,142.49 c -13.54,0.092 -27.091,0.027 -40.632,0.039 -0.052,6.263 0.016,12.528 -0.158,18.794 8.511,1.236 17.145,0.397 25.707,0.624 7.729,-0.213 15.521,0.545 23.223,-0.572 -0.199,-6.053 -0.199,-12.115 -0.016,-18.181 -2.684,-0.465 -5.397,-0.758 -8.124,-0.704 z m -40.815,-326.487 c 0.251,6.783 0.145,13.566 0.106,20.361 16.239,0.173 32.478,0.082 48.716,0.054 -0.04,-6.823 -0.119,-13.646 0.106,-20.468 -6.424,-1.276 -12.982,-0.492 -19.457,-0.677 -9.83,0.357 -19.752,-0.867 -29.471,0.73 z m 27.687,26.705 c 0.016,7.062 0.016,14.123 0.001,21.185 15.987,0.082 31.986,-0.105 47.984,0.135 0.158,-7.144 0.188,-14.285 -0.027,-21.426 -15.986,0.252 -31.971,0.079 -47.958,0.106 z m -27.354,109.24 c -0.04,6.916 -0.067,13.82 -0.016,20.734 7.012,0.544 14.046,0.598 21.068,0.333 -0.04,-7.021 -0.082,-14.031 0.027,-21.039 -7.023,-0.014 -14.059,0.013 -21.079,-0.028 z m -27.118,163.636 c -0.028,6.357 -0.134,12.717 0.121,19.072 15.998,-0.213 31.996,-0.161 47.997,-0.039 0.025,-6.332 0.013,-12.661 0.064,-18.991 -16.065,-0.107 -32.132,0.024 -48.182,-0.042 z m 0,73.374 c 16.04,-0.094 32.105,-0.028 48.156,-0.039 -0.038,-6.931 -0.053,-13.885 0.026,-20.827 -15.971,-0.918 -31.983,-0.025 -47.984,-0.438 -0.439,7.088 -0.198,14.189 -0.198,21.304 z m 48.237,54.275 c -0.173,-6.876 -0.121,-13.751 -0.067,-20.63 -16.064,0 -32.13,0.082 -48.182,-0.025 -0.042,6.914 -0.028,13.818 -0.055,20.746 8.271,0.984 16.597,0.241 24.909,0.479 7.794,-0.185 15.641,0.48 23.395,-0.57 z m -47.651,-163.037 c 7.66,-0.399 15.334,-0.651 23.006,-0.467 8.234,-0.52 16.48,1.264 24.672,-0.053 -0.4,-6.265 0.348,-12.595 -0.466,-18.832 -15.881,-0.161 -31.788,0.214 -47.677,-0.146 0.104,6.477 -1.051,13.182 0.465,19.498 z m -0.588,-291.908 c 0.068,6.863 -0.451,13.738 0.188,20.588 1.77,0.904 3.869,0.545 5.797,0.678 14.017,-0.106 28.035,-0.12 42.041,0.013 0.024,-6.915 0.529,-13.911 -0.268,-20.799 l -0.227,-0.479 c -8.935,0.12 -17.899,0.12 -26.836,0.067 -6.902,-0.068 -13.804,-0.055 -20.695,-0.068 z m 20.708,211.712 c 0.119,-13.897 0.174,-27.809 0.013,-41.706 -16.039,0.08 -32.076,0.026 -48.116,0.039 0.013,13.911 0.052,27.822 0.027,41.748 16.012,-0.028 32.05,0.119 48.076,-0.081 z m -0.013,-218.017 c 0.132,-13.245 0.119,-26.506 0.025,-39.752 -16.011,-0.08 -32.009,0 -48.021,-0.053 -0.121,13.26 0,26.545 -0.054,39.819 16.013,0.105 32.037,0.158 48.05,-0.014 z m -20.693,325.171 c 6.9,0.039 13.818,0.028 20.719,0.028 0.121,-6.372 0.213,-12.741 -0.119,-19.112 -8.937,0.187 -17.872,0.16 -26.796,0 -0.136,4.241 -0.148,8.499 -0.136,12.754 2.115,-0.014 4.23,-0.014 6.33,0 0.002,2.1 -0.013,4.215 0.002,6.33 z m 20.599,109.307 c 0.347,-7.128 0.347,-14.242 -0.015,-21.371 -6.822,0.134 -13.645,0.146 -20.466,0 -0.28,7.129 -0.308,14.243 0.012,21.371 6.825,-0.146 13.648,-0.134 20.469,0 z m -20.453,33.022 c -0.347,7.102 -0.146,14.19 -0.171,21.308 6.913,-0.016 13.842,0 20.758,-0.016 0.082,-7.102 0.239,-14.19 -0.186,-21.279 -6.796,0.133 -13.606,0.145 -20.401,-0.013 z m 0.04,-87.416 c 6.771,-0.187 13.54,-0.187 20.31,0.014 0.49,-6.53 0.465,-13.101 0.026,-19.631 -6.785,0.134 -13.578,0.134 -20.363,0.015 -0.291,6.527 -0.305,13.07 0.027,19.602 z m -0.174,-216.328 c -0.079,-7.062 -0.066,-14.123 -0.027,-21.186 -9.151,-0.066 -18.301,0.04 -27.438,-0.081 -0.039,7.103 -0.024,14.19 0,21.293 9.152,-0.067 18.316,-0.039 27.465,-0.026 z m -30.589,-136.238 c 8.139,-0.121 16.319,0.398 24.431,-0.521 -0.159,-6.834 -0.159,-13.684 -0.025,-20.519 -7.063,-0.201 -14.125,-0.226 -21.188,-0.12 -9.137,0.065 -18.287,0.039 -27.437,0.079 -0.118,6.876 -0.079,13.752 -0.198,20.627 8.126,0.758 16.279,0.414 24.417,0.454 z m -24.325,33.275 c 0.016,7.022 10e-4,14.043 10e-4,21.093 16.225,0.12 32.438,0 48.662,0.067 -0.028,-7.077 -0.028,-14.151 -0.013,-21.226 -16.21,0.052 -32.44,-0.041 -48.65,0.066 z m 48.756,75.447 c -0.264,-6.663 0.081,-13.327 -0.157,-19.989 -1.264,-1.756 -3.566,-0.998 -5.389,-1.185 -14.335,0.321 -28.685,-0.238 -42.997,0.227 -0.491,6.969 -0.079,13.964 -0.251,20.947 16.264,0.252 32.529,0.252 48.794,0 z m -20.959,-102.819 c -0.918,6.956 -0.064,14.044 -0.397,21.053 16.066,0.014 32.145,-0.04 48.224,0.028 0.094,-7.103 0.278,-14.218 -0.188,-21.307 -15.866,0.293 -31.773,-0.199 -47.639,0.226 z m -0.411,54.767 c 0.186,6.729 -0.105,13.473 0.066,20.202 0.411,0.201 1.249,0.598 1.662,0.798 8.632,-0.053 17.329,0.439 25.946,-0.359 -0.332,-6.835 -0.238,-13.699 -0.132,-20.548 -9.189,-0.266 -18.368,-0.04 -27.542,-0.093 z m 0.066,182.601 c 16.011,-0.027 32.024,-0.133 48.049,0.038 0.332,-6.343 0.24,-12.7 0.135,-19.058 -16.08,0.106 -32.173,0.028 -48.252,0.016 0.094,6.343 0,12.673 0.068,19.004 z m -7.103,-100.796 c -6.807,-0.04 -13.607,-0.093 -20.401,0.067 0.133,6.862 0.133,13.712 -0.04,20.574 7.049,0.852 14.148,0.571 21.212,-0.013 0.091,-6.49 0.145,-12.995 -0.266,-19.483 l 1.236,-1.131 z m 0.947,-61.017 c -0.083,-6.943 -0.029,-13.884 -0.055,-20.827 -16.079,0.014 -32.145,0.092 -48.209,-0.04 v 20.853 c 7.46,-0.226 14.895,-0.053 22.356,0.266 8.629,-0.837 17.273,0.825 25.908,-0.252 z m -0.082,54.807 c 0.053,-7.089 0.066,-14.177 -0.027,-21.266 -16.025,0 -32.064,0.132 -48.09,-0.081 -0.066,7.128 -0.133,14.258 0.04,21.372 16.025,-0.185 32.052,-0.053 48.077,-0.025 z m 0.04,88.015 c -16.081,0.039 -32.159,0.014 -48.224,0 0.013,6.346 -0.053,12.688 0.066,19.018 16.04,-0.211 32.064,-0.159 48.103,-0.065 0.068,-6.318 0.015,-12.636 0.055,-18.953 z m 26.877,27.435 c -8.923,-1.023 -18.006,0 -26.999,-0.465 0.04,2.208 0.055,4.454 0.308,6.676 4.109,-0.026 8.243,-0.546 12.354,-0.054 -0.053,1.861 -0.066,3.711 -0.041,5.573 2.78,0.704 5.652,0.811 8.485,1.13 0.24,2.023 -0.37,4.335 0.747,6.185 1.956,-0.08 3.883,-0.507 5.797,-0.852 -0.53,-6.051 0.614,-12.302 -0.651,-18.193 z m -27.209,-61.35 c 0.717,-6.823 0.064,-13.699 0.186,-20.534 -15.959,-0.77 -31.997,-0.597 -47.971,-0.067 0.146,6.849 -0.545,13.752 0.173,20.575 15.852,0.359 31.759,0.306 47.612,0.026 z m -0.052,-184.462 c -15.854,-0.425 -31.76,0.053 -47.626,-0.212 -0.385,7.088 -0.172,14.205 -0.212,21.293 16.063,-0.067 32.129,-0.028 48.209,-0.014 -0.24,-7.009 0.559,-14.098 -0.371,-21.067 z m -27.118,102.952 c -0.041,-7.116 0.079,-14.218 -0.134,-21.307 -16.013,0.333 -32.039,-0.279 -48.038,0.306 0.053,6.982 0.093,13.952 -0.026,20.935 16.079,0.184 32.145,0.052 48.198,0.066 z m -20.64,33.567 c 0,6.916 -0.053,13.818 0,20.707 6.808,0.52 13.645,0.545 20.467,0.611 0.226,-7.102 0.16,-14.215 0.16,-21.318 -6.876,0 -13.751,0.039 -20.627,0 z m -27.598,-163.582 c 0.066,6.982 0.04,13.95 0.013,20.946 16.013,0.519 32.025,-0.08 48.036,0.333 0.267,-7.063 0.174,-14.123 0.134,-21.187 -9.03,-0.012 -18.047,-0.079 -27.051,-0.092 -7.035,-0.04 -14.082,-0.081 -21.132,0 z m 0.106,54.327 c 0.014,7.089 -0.013,14.19 0.014,21.279 16.013,-0.054 32.025,-0.08 48.038,0.013 0.12,-7.102 0.106,-14.204 -0.014,-21.292 -16.013,0.106 -32.025,0.081 -48.038,0 z m 0.532,218.257 c -1.476,5.972 -0.146,12.566 -0.665,18.751 5.041,0.679 10.201,0.904 15.201,-0.292 -0.12,-1.835 -0.226,-3.645 -0.319,-5.453 2.114,-0.319 4.243,-0.613 6.371,-0.905 0.04,-2.074 0.106,-4.109 0.173,-6.145 4.708,-0.197 9.535,1.172 14.15,0.08 0.133,-2.114 0.014,-4.229 -0.053,-6.33 -11.624,0.666 -23.261,-0.173 -34.858,0.294 z m -0.505,-115.159 c 7.049,-0.093 14.084,0 21.133,-0.068 0.014,-7.049 -0.014,-14.096 0.014,-21.145 -7.049,-0.053 -14.098,0 -21.146,-0.066 -0.04,7.101 -0.054,14.19 -10e-4,21.279 z m -27.609999,88.12 c 0.146,6.266 0.066,12.541 0.053,18.805 16.224999,0.054 32.450999,0.067 48.674999,-0.013 0.027,-6.251 -0.066,-12.528 0.08,-18.792 -16.264,-0.16 -32.542,-0.133 -48.807999,0 z m 48.888999,-143.246 c -0.292,-6.784 -0.199,-13.592 -0.12,-20.375 -7.075,-0.212 -14.15,-0.106 -21.212,-0.12 0.04,6.889 0.08,13.778 -0.066,20.68 7.116,0.52 14.336,1.158 21.398,-0.185 z m -19.324,-75.395 c -9.868,0.333 -19.803,-0.704 -29.630999,0.626 0.24,6.836 0.173,13.671 0.106,20.508 16.238999,0.092 32.476999,0.146 48.715999,0 -0.067,-6.824 -0.16,-13.632 0.12,-20.456 -6.358,-1.224 -12.874,-0.531 -19.311,-0.678 z m -29.484999,272.931 c 0.013,6.288 0.053,12.605 -0.067,18.896 9.189999,0.174 18.379999,0.213 27.556999,0.015 0.013,-2.116 0.04,-4.202 0.066,-6.305 2.833,-0.013 5.679,-0.027 8.512,-0.079 -0.079,-4.177 -0.093,-8.353 -0.079,-12.501 -11.996,-0.094 -23.992,0.012 -35.988999,-0.026 z m 27.436999,128.204 c 0.119,-7.075 0.119,-14.137 -0.014,-21.195 -9.136,0.012 -18.287,-0.016 -27.422999,0 0,7.047 -0.014,14.106 -0.014,21.184 9.150999,0.011 18.300999,-0.029 27.450999,0.011 z m -27.369999,-73.837 c 0.066,6.424 -0.479,12.874 0.199,19.284 9.043999,0.426 18.113999,-0.081 27.156999,0.174 0.106,-6.505 0.093,-12.995 0,-19.511 -9.123,0.092 -18.233,0.014 -27.355999,0.053 z m 21.171999,46.36 c -0.08,-7.073 0.028,-14.15 -0.133,-21.225 -14.962,0.188 -29.949999,-0.174 -44.897999,0.159 -0.345,0.252 -1.024,0.758 -1.343,1.025 -0.227,6.676 0.079,13.352 -0.094,20.016 15.481,0.067 30.974999,0.025 46.467999,0.025 z m -46.493999,-73.253 c 0.12,6.305 0.053,12.608 0.08,18.899 15.44,-0.014 30.907999,-0.067 46.360999,0.027 0.053,-6.304 -0.027,-12.621 0.08,-18.938 -15.507,-0.119 -31.013999,-0.094 -46.520999,0.012 z m 46.334999,-35.374 c 0.187,-6.517 0.159,-13.047 0.079,-19.563 -15.427,0.226 -30.880999,0.146 -46.307999,0.053 -0.066,6.251 0.04,12.528 -0.16,18.792 2.327,0.267 4.628,0.505 6.956,0.665 13.153,-0.027 26.292999,-0.533 39.432999,0.053 z m 0.079,-270.67 c 0.053,-7.102 0.041,-14.19 0.106,-21.265 -7.063,-0.106 -14.11,-0.04 -21.145999,0.014 -8.419,0.012 -16.824,0.04 -25.229,0.065 -0.093,6.889 -0.051,13.766 -0.173,20.642 15.455,1.01 30.961999,0.067 46.441999,0.544 z m 0.16,433.627 c -0.199,-6.85 -0.16,-13.699 -0.053,-20.548 -15.506,-0.094 -31.013999,-0.121 -46.520999,0 0.106,6.836 0.173,13.672 -0.066,20.508 6.902,1.012 13.911,0.531 20.867,0.505 8.577999,-0.933 17.234999,1.011 25.772999,-0.465 z m 6.104,6.343 c -9.124,0.053 -18.247,-0.054 -27.382999,-0.028 -0.08,7.037 0.014,14.071 -0.106,21.092 9.189999,0.242 18.406999,0.161 27.609999,0.094 -0.106,-7.048 0.054,-14.11 -0.121,-21.158 z m -27.262999,-467.539 c 12.767999,0.093 25.547999,-0.04 38.301999,0.106 l 0.785,-0.106 c 2.992,0 5.998,-0.014 8.991,-0.014 0.226,-13.259 0.333,-26.545 0.066,-39.804 -15.148,0.093 -30.309,-0.2 -45.443,0.053 -2.407999,-0.479 -2.912999,2.274 -2.739999,3.99 -0.054,11.93 0.159,23.859 0.039,35.775 z m -25.402,169.978 c 0.093,6.89 0.106,13.753 -0.041,20.628 6.317,0.785 12.688,0.544 19.019,-0.067 0.159,-6.876 0.146,-13.737 -0.106,-20.6 -6.277,0.067 -12.581,-0.039 -18.872,0.039 z m 18.952,136.093 c -15.241,0.106 -30.482,0.146 -45.71,-0.038 -0.293,6.355 -0.187,12.725 -0.253,19.097 15.361,0.039 30.695,0.052 46.056,0 0.08,-6.357 0.133,-12.712 -0.093,-19.059 z m -0.014,128.366 c 0.279,-7.129 0.266,-14.256 0.014,-21.372 -15.294,0.198 -30.602,0.066 -45.896,0.066 0.106,7.117 -0.252,14.258 0.093,21.372 15.254,-0.319 30.535,-0.2 45.789,-0.066 z m -0.133,-54.383 c 0.466,-6.527 0.426,-13.086 0.067,-19.63 -15.188,0.081 -30.362,0.2 -45.537,-0.052 -0.931,6.236 -0.372,12.58 -0.053,18.858 l 0.731,0.545 c 14.91,0.426 29.872,-0.157 44.792,0.279 z m -45.523,87.405 c -0.479,7.089 -0.2,14.178 -0.251,21.279 15.333,0.055 30.654,0.016 45.988,0.016 0.12,-7.104 0.228,-14.206 -0.158,-21.295 -15.19,0.174 -30.391,0.2 -45.579,0 z m -0.16,-270.522 c -0.106,6.995 -0.067,13.978 -0.067,20.959 15.148,0.08 30.349,0.279 45.497,-0.026 1.184,-6.729 0.319,-13.605 0.412,-20.388 -15.253,-1.223 -30.561,-0.411 -45.842,-0.545 z m -0.106,-142.583 c 15.321,0.186 30.628,-0.065 45.949,0.133 0.187,-7.115 0.306,-14.244 -0.16,-21.346 -15.188,0.106 -30.375,0.147 -45.563,-0.013 -0.466,7.062 -0.066,14.15 -0.226,21.226 z m 27.09,88.081 c -9.03,0.093 -18.06,0.053 -27.064,0.04 -0.04,7.103 -0.146,14.19 0.212,21.279 8.951,-0.133 17.888,-0.065 26.838,-0.053 0.041,-7.089 0.014,-14.177 0.014,-21.266 z m -54.501,191.126 c 0.067,6.33 0.014,12.673 0.094,19.019 15.467,-0.174 30.934,-0.016 46.401,-0.106 -0.053,-6.251 -0.067,-12.502 0.053,-18.754 -15.52,-0.385 -31.04,-0.025 -46.548,-0.159 z m 0.346,-272.849 c -0.066,7.049 -0.066,14.096 0,21.132 15.387,0.026 30.748,0.041 46.135,0.013 -0.026,-7.061 -0.026,-14.109 0,-21.159 -15.386,-0.014 -30.747,-0.027 -46.135,0.014 z m 46.029,219.294 c -0.333,-0.279 -0.998,-0.85 -1.33,-1.144 -14.948,-0.254 -29.91,0.172 -44.858,-0.175 -0.226,6.357 -0.106,12.728 -0.199,19.098 9.509,0.053 19.018,0.439 28.527,0.187 6.038,-0.014 12.155,0.771 18.113,-0.584 -0.346,-5.788 0.04,-11.583 -0.253,-17.382 z m 0.187,181.03 c -0.187,-6.771 -0.146,-13.539 -0.04,-20.321 -15.495,-0.319 -31.015,-0.013 -46.522,-0.158 0.08,6.94 0.067,13.896 0,20.853 15.508,-0.721 31.121,1.58 46.562,-0.374 z m -46.229,-454.732 c -0.04,7.036 -0.04,14.084 0.014,21.12 13.153,0.065 26.306,-0.067 39.459,0.093 2.194,-0.188 4.828,0.438 6.517,-1.344 0.466,-6.583 0.014,-13.194 0.041,-19.79 -9.15,-0.025 -18.3,-0.025 -27.464,-0.079 -6.185,-0.053 -12.369,-0.066 -18.567,0 z m 46.202,129.842 c -0.226,-6.597 0.24,-13.22 -0.239,-19.804 -1.649,-1.781 -4.282,-1.103 -6.423,-1.33 -13.18,0.227 -26.346,0.014 -39.513,0.121 -0.066,7.049 -0.08,14.098 -0.027,21.146 15.401,0.012 30.802,0.265 46.202,-0.133 z m -6.716,249.495 c -13.22,0.026 -26.439,0.136 -39.646,-0.028 -0.213,7.092 -0.08,14.178 -0.16,21.279 15.507,-0.12 31.014,0.174 46.508,-0.159 -0.094,-6.769 -0.16,-13.512 0.066,-20.255 -2.233,-0.41 -4.493,-0.837 -6.768,-0.837 z m -12.275,-215.755 c -0.106,6.888 -0.08,13.777 -0.026,20.667 6.33,0.612 12.729,0.878 19.057,-0.014 -0.172,-6.823 -0.172,-13.659 -0.04,-20.48 -6.33,-0.214 -12.661,-0.16 -18.991,-0.173 z m -0.067,-81.805 c 0.067,7.117 -0.359,14.23 0.213,21.332 8.898,0.279 17.809,-0.957 26.665,0.015 0.251,-7.089 0.08,-14.177 0.2,-21.266 -9.03,-0.12 -18.061,0.025 -27.078,-0.081 z m 45.856,182.692 c 0.266,-6.343 0.187,-12.7 0.053,-19.042 -15.334,0.039 -30.682,0.079 -46.016,-0.016 0.12,6.291 0.12,12.596 -0.425,18.872 15.454,0.255 30.907,-0.052 46.388,0.186 z M -7.6314488,84.8975 c 15.321,0.212 30.6549998,-0.014 45.9889998,0.092 l 0.279,0.013 c -0.225,-13.884 -0.171,-27.782 -0.014,-41.68 -15.427,-0.213 -30.8679998,-0.053 -46.3219998,-0.08 0.175,13.885 0.095,27.769 0.068,41.655 z m -0.239,33.822 c 0.161,6.274 0.106,12.581 0.041,18.868 15.453,0.068 30.9209998,-0.013 46.3879998,0.016 0.027,-6.291 0,-12.595 0.04,-18.884 -15.495,-0.068 -30.9879998,-0.029 -46.4689998,0 z M 38.637551,-24.3035 c -0.08,-6.876 -0.08,-13.752 -0.053,-20.614 -6.224,-0.067 -12.461,-0.04 -18.672,0 -0.067,7.075 -0.067,14.137 0,21.212 6.237,-0.239 12.488,-0.585 18.725,-0.598 z m -18.726,54.872 c 6.211,0.04 12.408,0.026 18.632,0.053 0.042,-7.074 0.042,-14.151 0.027,-21.226 -6.224,0 -12.448,0 -18.659,0.067 -0.039,7.035 -0.08,14.07 0,21.106 z m 18.646,270.695 c 0.04,-7.075 0.04,-14.151 -0.014,-21.195 -15.479,0.024 -30.9339998,0.012 -46.3879998,0 0.106,7.047 0.093,14.12 0,21.195 15.467,-0.026 30.9209998,-0.026 46.4019998,0 z m 0.093,-54.938 c -0.107,-6.305 -0.04,-12.621 -0.146,-18.938 -15.414,0.08 -30.8279998,0 -46.2419998,0.039 -0.066,6.491 -0.08,12.967 -0.027,19.458 15.467,-0.401 30.9869998,0.584 46.4149998,-0.559 z m -46.1749998,88.293 c -0.638,6.942 -0.014,13.938 -0.359,20.92 15.494,0.278 30.9869998,0.172 46.4809998,0.039 -0.054,-7.05 0.04,-14.1 -0.133,-21.146 -15.334,0.228 -30.6819998,-0.21 -45.9889998,0.187 z M 38.584551,-78.6985 c -0.146,-6.689 0.279,-13.42 -0.146,-20.095 -5.746,-2.327 -12.409,-0.573 -18.526,-0.998 -0.067,7.036 -0.067,14.057 0,21.092 6.21,0.04 12.435,0.054 18.672,0.001 z m -0.16,-54.394 c 0,-13.272 0.106,-26.572 -0.013,-39.845 -6.171,0.041 -12.355,0.041 -18.526,-0.053 -0.026,13.299 -0.026,26.599 0.027,39.898 6.17,0.08 12.341,0.039 18.512,0 z m -68.332,297.971 c 13.618,-0.665 27.2500002,0.187 40.869,0.267 0.24,-6.504 0.2,-13.021 0.04,-19.51 -13.6449998,0.146 -27.304,0.146 -40.962,0.025 -1.822,0.12 -4.07,-0.426 -5.253,1.384 -0.333,5.733 0.053,11.503 -0.226,17.249 1.834,0.241 3.67,0.493 5.532,0.585 z m 41.015,-54.687 c -0.013,-6.33 0.014,-12.661 -0.066,-18.978 -6.2509998,0.013 -12.4879998,0 -18.7389998,0.104 -9.0170002,0.161 -18.0600002,0.161 -27.0900002,0.146 -0.585,6.174 -0.572,12.371 -0.572,18.567 15.493,0.307 30.9860002,0.016 46.467,0.161 z m 27.504,81.738 c -0.067,-6.29 -0.027,-12.581 -0.067,-18.885 -15.453,0.028 -30.9069998,0.016 -46.3479998,0 0.04,6.304 0.08,12.621 -0.106,18.938 15.506,0.161 31.0269998,0.2 46.5209998,-0.053 z m -27.477,136.372 c -0.08,-6.943 -0.066,-13.884 -0.04,-20.827 -15.4799998,0.146 -30.974,-0.213 -46.468,0.2 0.093,6.743 0.173,13.472 -0.08,20.201 6.371,1.475 12.927,0.745 19.404,0.771 9.0570002,-0.452 18.1530002,0.694 27.184,-0.345 z m -26.918,-27.064 c -0.133,-7.063 -0.133,-14.097 -0.014,-21.146 -15.48,-0.079 -30.934,0.066 -46.388,-0.066 -0.133,7.089 -0.172,14.178 0.027,21.266 15.454,-0.121 30.907,0.039 46.375,-0.054 z m -46.415,-128.232 c -0.12,6.344 -0.066,12.688 -0.08,19.019 15.507,0 31.027,0.281 46.534,-0.135 -0.266,-6.317 0.24,-12.674 -0.665,-18.965 -15.267,0.266 -30.535,0.135 -45.789,0.081 z m 46.242,162.836 c -0.319,-0.319 -0.957,-0.958 -1.263,-1.29 -14.962,-0.278 -29.923,0.135 -44.885,-0.159 -0.293,7.076 -0.133,14.151 -0.173,21.228 15.494,-0.016 31,0.304 46.508,-0.148 -0.266,-6.544 0.118,-13.087 -0.187,-19.631 z m -0.678,-108.561 c -15.148,0.293 -30.323,0.119 -45.484,0.08 -0.266,6.385 -0.173,12.78 -0.159,19.178 14.11,0.649 28.261,0.079 42.398,0.346 1.675,0.239 4.442,-0.307 4.016,-2.594 0.027,-5.68 0.413,-11.424 -0.771,-17.01 z m 27.715,46.534 c -0.028,-7.088 0.067,-14.177 -0.066,-21.253 -15.1749998,-0.025 -30.336,0.2 -45.497,-0.106 -1.596,6.956 -0.493,14.151 -0.865,21.228 15.48,0.277 30.9630002,0.025 46.428,0.131 z m -0.039,-54.343 c 0.106,-6.343 0.027,-12.688 0.08,-19.045 -15.4949998,0.174 -31.001,-0.172 -46.495,0.187 0.227,6.305 -0.411,12.677 0.718,18.939 15.228,-0.251 30.4560002,-0.133 45.697,-0.081 z m -54.328,54.302 c -0.053,-6.902 -0.053,-13.805 0.053,-20.708 -15.161,-0.997 -30.389,-0.238 -45.577,-0.452 0,7.022 -0.373,14.059 -0.133,21.094 15.228,0.198 30.442,0.055 45.657,0.066 z m 0,-163.608 c -0.013,-6.236 -0.04,-12.46 -0.093,-18.711 -8.406,0.027 -16.837,0.027 -25.242,-0.106 -6.729,-0.093 -13.459,-0.12 -20.188,-0.079 -0.16,6.343 -0.16,12.487 -0.146,18.829 15.226,0.122 30.454,0.028 45.669,0.067 z m -43.49,90.064 c -0.505,0.187 -1.516,0.529 -2.021,0.718 -0.146,6.158 -0.105,12.302 -0.04,18.46 15.188,0.025 30.349,-0.029 45.538,0.039 -0.027,-6.292 -0.027,-12.58 0.052,-18.885 -14.496,-0.265 -29.018,0.188 -43.529,-0.332 z m 43.543,127.993 c -0.119,-6.903 -0.106,-13.793 -0.04,-20.682 -15.174,-0.094 -30.349,0 -45.524,-0.055 -0.079,6.892 -0.146,13.754 -0.066,20.63 8.259,0.756 16.584,0.756 24.87,0.438 6.915,-0.477 13.871,0.493 20.76,-0.331 z m -19.044,-209.571 c 0.013,6.33 -0.067,12.66 0.106,18.99 15.348,-0.252 30.722,0.318 46.069,-0.252 0.599,-6.185 0.014,-12.408 0.333,-18.605 -15.508,-0.227 -31.015,0 -46.508,-0.133 z m -26.573,125.57 c 0.014,0.64 0.027,1.943 0.041,2.58 6.809,0.096 13.633,0.229 20.415,-0.451 -0.106,-6.317 -0.12,-12.647 -0.12,-18.965 -6.769,0.041 -13.539,0.027 -20.294,0.041 -0.094,5.597 -0.094,11.197 -0.042,16.795 z m 0.053,-125.529 c -0.266,6.302 0.014,12.422 -0.146,18.897 6.822,0.052 13.646,0.038 20.468,0.026 -0.026,-6.289 -0.053,-12.581 0.013,-18.871 -6.782,-0.119 -13.552,-0.08 -20.335,-0.052 z m 20.322,161.36 c -6.822,0.013 -13.619,-0.015 -20.427,0.027 -0.718,7.035 -0.732,14.121 -0.014,21.158 6.809,0.039 13.619,0.013 20.441,0.039 -0.027,-7.073 -0.027,-14.162 0,-21.224 z m -20.415,-106.966 c -0.864,6.329 0.066,12.659 0.12,19.005 6.783,0.026 13.552,-0.015 20.335,-0.12 -0.092,-6.306 -0.08,-12.61 -0.054,-18.911 -6.809,-0.016 -13.605,-0.042 -20.401,0.026 z m 0.08,-88.083 c 6.716,-0.026 13.46,-0.055 20.188,-0.026 0.053,-13.885 -0.12,-27.769 0.132,-41.654 -6.782,-0.172 -13.552,-0.12 -20.321,-0.133 -0.093,4.867 -0.053,9.775 -0.066,14.656 0.054,9.043 -0.052,18.1 0.067,27.157 z m 0,249.482 c -0.027,1.753 -0.041,3.512 -0.066,5.291 -0.014,5.533 -0.04,11.081 0.132,16.611 l 0.027,-1.53 1.809,0.962 c 6.158,-0.175 12.315,-0.146 18.486,-0.227 -0.106,-6.878 -0.12,-13.767 0.027,-20.643 -6.783,-0.703 -13.619,-0.544 -20.415,-0.464 z m 45.577,-169.938 c -0.106,-6.13 -0.106,-12.273 0,-18.419 -15.161,-0.865 -30.362,-0.188 -45.537,-0.426 -0.159,6.236 -1.051,12.475 -0.199,18.713 15.214,0.768 30.522,0.903 45.736,0.132 z"
   id="path2" />
<path
   fill="#d6ba9c"
   d="m 427.19155,43.1745 c -0.054,13.911 -0.015,27.822 0.039,41.747 0,2.128 0,4.269 0.015,6.409 -9.176,0.161 -18.354,0.134 -27.516,0.121 -2.116,-0.015 -4.217,-0.015 -6.317,0 -9.163,0.054 -18.313,-0.027 -27.464,-0.106 -0.026,-2.128 -0.04,-4.242 -0.026,-6.357 0.039,-13.925 0.105,-27.849 -0.014,-41.773 -16.013,0 -32.011,0 -48.023,0.013 -0.015,13.871 -0.04,27.756 0.013,41.627 0.015,2.141 0.081,4.269 0.173,6.423 -9.282,0.013 -18.552,0.12 -27.822,0.013 -2.114,0.054 -4.229,0.118 -6.33,0.2 0,0 -18.354,-0.122 -27.212,-0.174 -0.013,-2.154 -0.013,-4.295 -0.013,-6.436 0.119,-13.898 0.174,-27.809 0.013,-41.707 -16.038,0.08 -32.076,0.026 -48.116,0.04 0.013,13.911 0.055,27.822 0.025,41.746 -0.025,2.194 -0.037,4.415 -0.064,6.622 -9.137,-0.463 -18.275,-0.184 -27.423,-0.304 h -0.373 c -1.915,0 -3.697,-0.171 -5.625,0.026 v 0.016 c -7.926,0.025 -21.398,0.037 -27.397,-0.106 -0.106,-2.115 -0.239,-4.217 -0.279,-6.318 0.386,-13.898 0.532,-27.809 0.133,-41.707 -16.185,0.2 -32.438,-0.306 -48.568999,0.279 0.811,12.86 0.519,41.415 0.519,41.415 -0.16,2.141 -0.266,4.295 -0.492,6.45 0,0 -17.209,0 -25.003,0.026 -2.74,-0.014 -5.453,0.013 -8.179,-0.106 0,0 -18.646,0.16 -27.437,0.08 0.053,-2.114 0,-4.242 -0.066,-6.342 l 0.279,0.013 c -0.226,-13.884 -0.173,-27.783 -0.014,-41.68 -15.427,-0.213 -30.8679998,-0.053 -46.3219998,-0.08 0.173,13.884 0.094,27.769 0.067,41.653 -0.026,2.142 -0.053,4.284 -0.067,6.425 -9.0170002,0.159 -18.0600002,0.159 -27.0900002,0.145 -2.859,-0.013 -5.719,-0.013 -8.591,-0.013 -8.406,0.027 -16.837,0.027 -25.242,-0.106 v -6.371 c 0.053,-13.885 -0.12,-27.769 0.132,-41.656 -6.782,-0.173 -13.552,-0.12 -20.321,-0.133 0.053,-2.048 0.119,-4.083 0.199,-6.118 8.844,0.027 17.702,0.041 26.545,-0.053 -0.239,16.025 0.12,32.064 -0.16,48.104 2.341,0.026 46.003,0.146 46.894,-0.173 -0.2,-8.365 -0.093,-16.717 -0.014,-25.083 l -0.12,-6.676 c 0.067,-5.373 0.053,-10.746 0.041,-16.119 11.8100002,-0.053 23.6330002,0.146 35.442,-0.08 9.03,-0.333 18.074,-0.226 27.091,-0.187 -0.106,6.889 -0.08,13.779 -0.026,20.667 0,2.115 -0.014,4.256 0,6.384 -0.106,6.995 -0.067,13.978 -0.067,20.959 15.148,0.08 30.35,0.279 45.497,-0.026 1.184,-6.729 0.319,-13.605 0.412,-20.388 -0.013,-2.328 0,-4.641 0.014,-6.942 0.159,-6.875 0.146,-13.738 -0.106,-20.601 20.454999,-0.013 40.908999,-0.12 61.363999,-0.053 0,6.916 -0.054,13.818 0,20.708 0.013,2.221 0.026,4.429 0.026,6.636 0.146,6.849 -0.545,13.752 0.173,20.574 15.853,0.359 31.759,0.306 47.612,0.026 0.717,-6.823 0.065,-13.698 0.186,-20.534 0,-2.249 0,-4.482 0.015,-6.73 0.092,-6.49 0.146,-12.993 -0.266,-19.483 l 1.236,-1.13 -1.742,-0.014 c 20.562,-0.186 41.121,0.014 61.669,-0.027 -0.04,6.916 -0.067,13.818 -0.016,20.734 0,2.102 0.027,4.202 0.053,6.304 0.029,7.009 -0.092,14.004 -0.184,21 16.185,0.093 32.37,0.04 48.568,0.014 -0.027,-6.889 -0.054,-13.765 -0.066,-20.654 -0.013,-2.248 -0.013,-4.482 -0.013,-6.716 0.079,-6.889 0.066,-13.792 -0.148,-20.694 11.092,-0.053 22.197,-0.133 33.275,0.146 9.191,0.266 18.381,0.08 27.569,0.147 0,16.012 0.08,32.038 -0.079,48.063 16.412,-0.027 32.811,-0.04 49.207,-0.013 -0.237,-16.039 -0.025,-32.078 -0.092,-48.131 10.919,0.067 21.836,0.081 32.743,0.04 0.039,2.035 0.093,4.07 0.16,6.104 -8.966,0.094 -17.93,0.054 -26.893,0.001 z M 38.411551,-172.9385 c 0.12,13.272 0.013,26.572 0.013,39.845 0.014,2.103 0.026,4.216 0.04,6.317 9.163,0.053 18.313,0.053 27.463,0.08 h 8.165 c 8.406,-0.027 16.811,-0.053 25.229,-0.066 0,-2.101 0.013,-4.203 0.04,-6.317 0.12,-11.917 -0.093,-23.846 -0.04,-35.775 -0.173,-1.715 0.332,-4.469 2.739999,-3.99 15.134,-0.252 30.295,0.04 45.443,-0.053 0.267,13.259 0.16,26.545 -0.066,39.805 0.053,2.103 0.173,4.216 0.292,6.317 9.004,0.014 18.021,0.08 27.051,0.094 2.128,-0.014 4.283,-0.027 6.411,-0.014 9.15,-0.04 18.3,-0.013 27.437,-0.08 -0.015,-2.113 -0.015,-4.229 0,-6.343 0.054,-13.273 -0.067,-26.559 0.054,-39.819 16.012,0.053 32.012,-0.027 48.022,0.053 0.094,13.246 0.106,26.506 -0.027,39.752 0,2.128 -0.013,4.244 0,6.37 8.939,0.053 17.902,0.053 26.839,-0.067 2.314,0.041 4.655,0.12 6.982,0.133 9.123,0.014 18.26,-0.08 27.397,-0.053 0,-2.14 0,-4.255 0.014,-6.383 0.174,-13.1 -0.478,-26.213 0.199,-39.287 8.816,-1.197 17.781,-0.16 26.652,-0.532 -0.054,-2.726 -0.08,-5.439 -0.106,-8.152 -10.959,0.026 -21.891,0.04 -32.836,0.04 0.081,16.092 -0.038,32.185 0.081,48.277 -16.411,-0.027 -32.822,-0.092 -49.236,0.013 0.348,-16.092 0.106,-32.158 0.174,-48.25 -20.095,-0.106 -40.218,-0.106 -60.313,0 0.093,16.106 -0.053,32.198 0.066,48.29 -16.156,-0.186 -32.304,-0.08 -48.461,-0.04 0.053,-6.118 0.041,-12.249 0.027,-18.366 v -2.541 c 0.026,-9.083 0,-18.167 -0.013,-27.237 -20.082,-0.359 -40.191,-0.04 -60.272999,-0.172 0.067,16.092 -0.093,32.197 0.08,48.276 -15.574,0.119 -31.134,-0.254 -46.708,0.172 -0.106,-16.092 -0.133,-32.225 -0.014,-48.331 -8.817,-0.212 -17.622,-0.066 -26.439,-0.106 -0.373,2.687 -0.785,5.359 -0.905,8.086 6.171,0.094 12.355,0.094 18.526,0.054 z"
   id="path3" />
</svg>
