<?xml version="1.0" encoding="utf-8"?>
<!-- Generator: Adobe Illustrator 15.1.0, SVG Export Plug-In . SVG Version: 6.00 Build 0)  -->
<!DOCTYPE svg PUBLIC "-//W3C//DTD SVG 1.1//EN" "http://www.w3.org/Graphics/SVG/1.1/DTD/svg11.dtd">
<svg version="1.1" id="Layer_1" xmlns="http://www.w3.org/2000/svg" xmlns:xlink="http://www.w3.org/1999/xlink" x="0px" y="0px"
	 width="612px" height="792px" viewBox="-273.5 -363.5 612 792" enable-background="new -273.5 -363.5 612 792"
	 xml:space="preserve">
<path fill="#FDBD3E" d="M31.163-247.824v2.951L-82.7,5.612l-163.194-161.277c19.22,155.263,47.817,323.546,47.994,468.489H31.833
	h229.734c0.164-144.943,28.766-313.226,47.994-468.48L146.367,5.621L32.5-244.873v-2.951l-0.675,1.48L31.163-247.824z"/>
<rect x="-159.503" y="140.024" fill="#C05C27" width="383.997" height="23.045"/>
<path fill="#EF3E3D" d="M-195.979,82.424c-25.446,0-46.086,34.382-46.086,76.795c0,42.421,20.64,76.803,46.086,76.803
	c25.442,0,46.073-34.382,46.073-76.803C-149.906,116.806-170.537,82.424-195.979,82.424 M260.979,82.424
	c-25.45,0-46.081,34.382-46.081,76.795c0,42.421,20.631,76.803,46.081,76.803c25.442,0,46.073-34.382,46.073-76.803
	C307.052,116.806,286.421,82.424,260.979,82.424"/>
<path fill="#FFFFFF" d="M32.5,32.5c-34.754,0.017-63.757,26.541-66.894,61.131c-28.614,8.395-48.289,34.633-48.306,64.454
	c0.018,29.898,19.796,56.181,48.518,64.488c3.898,33.889,33.352,52.459,67.461,52.503c34.459-0.009,62.55-19.03,66.063-53.316
	c28.644-8.359,48.34-34.615,48.357-64.454c-0.018-29.864-19.748-56.138-48.418-64.471C95.76,58.565,66.925,32.535,32.5,32.5"/>
<path fill="#6EC282" d="M32.5,80.503c41.356,0,74.882,33.517,74.882,74.882c0,41.356-33.525,74.855-74.882,74.855
	s-74.882-33.499-74.882-74.855C-42.382,114.02-8.856,80.503,32.5,80.503"/>
</svg>
