<svg version="1.1" id="Capa_1" x="0" y="0" xml:space="preserve" width="90.133" height="87.455" xmlns="http://www.w3.org/2000/svg"><style type="text/css" id="style1">.st0{fill:#020203}.st3{fill:#c15525}</style><path class="st0" d="M337.294 4.566c0-1.671-1.084-3.066-3.843-3.066l-32.914.004c-2.204 0-3.326.896-3.694 2.106h-4.897c-.366-1.212-1.488-2.11-3.695-2.11l-32.914.004c-2.76 0-3.843 1.395-3.843 3.067V26.2c0 1.346.72 2.498 2.432 2.902v2.443c-1.712.404-2.432 1.556-2.432 2.901v21.631c0 1.345.72 2.498 2.432 2.902v2.443c-1.705.402-2.426 1.546-2.432 2.884v21.648c0 1.672 1.084 3.066 3.843 3.066l32.914.005c2.759 0 3.843-1.395 3.843-3.066v-.005h4.6c0 1.672 1.083 3.066 3.843 3.066l32.913.005c2.76 0 3.844-1.395 3.844-3.066V64.32c0-1.368-.744-2.537-2.521-2.921V59.07c1.685-.412 2.394-1.557 2.394-2.893v-21.83c0-1.335-.71-2.48-2.394-2.893v-2.327c1.749-.378 2.497-1.517 2.52-2.857l.001-21.704z" id="path1"/><path class="st0" d="M210.46 1.902c-.934-.324-2.28-.4-4.246-.4L134.398 1.5c-.009 0-2.727.05-3.616.229-4.423.683-5.749 3.031-5.749 8.746l.005 69.537c0 7.019 2.02 8.94 9.393 8.94l71.278.003c7.333 0 9.453-2.067 9.453-9.216l.005-69.243c0-5.36-1.07-7.74-4.707-8.594z" id="path2"/><path d="M151.06 13.19h38.635l7.309 6.934v20.188l-6.973 7.017h-10.47l-1.952 2.016.072 8.344H162.13V44.206l7.154-7.48 10.276-.13 1.886-1.563v-9.818l-1.82-1.821h-18.862l-1.756 1.69v10.87h-15.605V21.053zm11.07 49.44v10.428h15.682l-.09-10.427z" id="path3" style="fill:#fff"/><path d="m134.465 85.952 71.538.003c5.715 0 6.487-.817 6.487-6.532l.005-71.619c0-5.715-.567-6.302-6.281-6.302L134.432 1.5c-5.715 0-6.399.568-6.399 6.283l.005 71.921c0 5.716.712 6.248 6.427 6.248zm27.665-12.894V62.63h15.593l.089 10.427zm41.418-67.912a4.021 4.021 0 1 1 0 8.043 4.021 4.021 0 0 1 0-8.043zm0 68.099a4.021 4.021 0 1 1 0 8.043 4.021 4.021 0 0 1 0-8.043zm-60.145-52.192 7.657-7.864h38.634l7.31 6.935v20.188l-6.973 7.017h-10.47l-1.952 2.016.072 8.344H162.13V44.207l7.154-7.48 10.276-.13 1.886-1.564v-9.818l-1.82-1.821h-18.862l-1.756 1.69v10.87h-15.605zm-6.62-15.907a4.021 4.021 0 1 1 0 8.043 4.021 4.021 0 0 1 0-8.043zm0 68.099a4.021 4.021 0 1 1-.001 8.043 4.021 4.021 0 0 1 0-8.043z" id="path4" style="fill:#ffdd04"/><path class="st3" d="M251.494 64.324c0-1.671 1.084-3.066 3.843-3.066l32.914-.005c2.76 0 3.844 1.395 3.844 3.066v21.636h-40.601V64.324zm62.083-8.245V34.443c0-1.671-1.084-3.066-3.844-3.066l-31.066.005c-2.76 0-3.844 1.395-3.844 3.066v21.631zM296.693 4.57l.173 21.63h40.428V4.567c0-1.671-1.084-3.066-3.843-3.066l-32.914.004c-2.76 0-3.844 1.395-3.844 3.067zm-45.2 51.508h18.837V34.443c0-1.671-1.085-3.066-3.844-3.066l-11.149.005c-2.76 0-3.843 1.395-3.843 3.066v21.631zm85.674 29.876.127-21.635c0-1.672-1.084-3.067-3.843-3.067l-32.914.005c-2.76 0-3.844 1.395-3.844 3.067v21.63h40.474zm-45.072-59.753V4.566c0-1.671-1.085-3.066-3.844-3.066l-32.914.004c-2.76 0-3.843 1.395-3.843 3.067V26.2zm45.2 29.781-.128-21.635c0-1.672-1.084-3.067-3.843-3.067l-11.15.005c-2.759 0-3.843 1.395-3.843 3.067v21.726z" id="path5"/><path class="st0" d="M80.886.002 9.366 0C2.012 0 0 1.93 0 8.975l.005 69.537c0 7.019 2.019 8.94 9.393 8.94l71.278.003c7.332 0 9.453-2.067 9.453-9.216l.005-69.243c0-7.145-1.902-8.994-9.248-8.994z" id="path6"/><path class="st3" d="m9.432 84.452 71.538.003c5.715 0 6.487-.817 6.487-6.532l.006-71.619c0-5.715-.567-6.302-6.282-6.302L9.4 0C3.685 0 3 .568 3 6.283l.006 71.921c0 5.716.712 6.248 6.427 6.248zM78.514 3.646a4.021 4.021 0 1 1 0 8.043 4.021 4.021 0 0 1 0-8.043zm0 68.099a4.021 4.021 0 1 1 0 8.043 4.021 4.021 0 0 1 0-8.043zM11.75 3.646a4.021 4.021 0 1 1 0 8.043 4.021 4.021 0 0 1 0-8.043zm0 68.099a4.021 4.021 0 1 1 0 8.043 4.021 4.021 0 0 1 0-8.043z" id="path7"/></svg>