<?xml version="1.0" encoding="UTF-8" standalone="no"?>
<!-- Generator: Adobe Illustrator 22.0.0, SVG Export Plug-In . SVG Version: 6.00 Build 0)  -->

<svg
   version="1.1"
   id="Capa_1"
   x="0px"
   y="0px"
   viewBox="0 0 90.133423 87.455269"
   xml:space="preserve"
   sodipodi:docname="question.svg"
   width="90.133423"
   height="87.455269"
   inkscape:version="1.3.2 (091e20e, 2023-11-25)"
   xmlns:inkscape="http://www.inkscape.org/namespaces/inkscape"
   xmlns:sodipodi="http://sodipodi.sourceforge.net/DTD/sodipodi-0.dtd"
   xmlns="http://www.w3.org/2000/svg"
   xmlns:svg="http://www.w3.org/2000/svg"><defs
   id="defs7" /><sodipodi:namedview
   id="namedview7"
   pagecolor="#ffffff"
   bordercolor="#000000"
   borderopacity="0.25"
   inkscape:showpageshadow="2"
   inkscape:pageopacity="0.0"
   inkscape:pagecheckerboard="0"
   inkscape:deskcolor="#d1d1d1"
   inkscape:export-bgcolor="#ffffff00"
   inkscape:zoom="0.87438495"
   inkscape:cx="168.69"
   inkscape:cy="519.79394"
   inkscape:window-width="1912"
   inkscape:window-height="1554"
   inkscape:window-x="3436"
   inkscape:window-y="28"
   inkscape:window-maximized="0"
   inkscape:current-layer="Capa_1" />
<style
   type="text/css"
   id="style1">
	.st0{fill:#020203;}
	.st1{fill:#FFFFFF;}
	.st2{fill:#FFDD04;}
	.st3{fill:#C15525;}
</style>
<path
   class="st0"
   d="m 337.29422,4.566109 c 0,-1.671265 -1.08423,-3.066162 -3.84351,-3.066162 l -32.91381,0.0045 c -2.20435,0 -3.32618,0.895569 -3.69361,2.105652 h -4.89746 c -0.36621,-1.21228 -1.48804,-2.110168 -3.69482,-2.110168 l -32.91379,0.0045 c -2.75928,0 -3.84351,1.394837 -3.84351,3.066162 l -2.4e-4,21.631102 c 0,1.34497 0.72021,2.49726 2.43213,2.90137 v 2.44305 c -1.71192,0.40418 -2.43189,1.55634 -2.43189,2.90119 l -2.4e-4,21.6311 c 0,1.34497 0.72021,2.49725 2.43213,2.90137 v 2.44305 c -1.70465,0.40245 -2.42575,1.54656 -2.43186,2.88405 -3e-5,0.006 -2.7e-4,21.64824 -2.7e-4,21.64824 0,1.67139 1.08423,3.06628 3.84351,3.06628 l 32.91378,0.005 c 2.75928,0 3.84351,-1.3949 3.84351,-3.06616 v -0.005 h 2.4e-4 4.59864 c 0,1.67133 1.08422,3.06616 3.8435,3.06616 l 32.91382,0.005 c 2.75928,0 3.84351,-1.3949 3.84351,-3.06616 l 2.4e-4,-21.64026 c 0,-1.36798 -0.74463,-2.53705 -2.52148,-2.92126 v -2.32728 c 1.68481,-0.41217 2.39404,-1.5578 2.39404,-2.89294 l 2.4e-4,-21.8302 c 0,-1.3352 -0.70947,-2.48083 -2.39428,-2.89301 v -2.3272 c 1.7489,-0.37828 2.49774,-1.51696 2.52075,-2.85731 3e-4,-0.0213 7.3e-4,-21.704218 7.3e-4,-21.704218 z"
   id="path1" />
<path
   class="st0"
   d="m 210.46014,1.901802 c -0.93408,-0.323791 -2.28027,-0.399536 -4.24609,-0.399536 l -71.81555,-0.0023 c -0.009,0 -2.72766,0.05042 -3.61633,0.228698 -4.42334,0.683533 -5.74891,3.0318 -5.74891,8.746643 l 0.005,69.536259 c 0,7.01898 2.01905,8.94085 9.39258,8.94085 l 71.27832,0.003 c 7.33277,0 9.45288,-2.06726 9.45288,-9.21606 l 0.005,-69.243534 c 0,-5.359924 -1.07032,-7.73938 -4.70655,-8.593811 z"
   id="path2" />
<path
   class="st1"
   d="m 151.06024,13.189278 h 38.63428 l 7.30933,6.93518 v 20.187989 l -6.97242,7.01611 h -10.47119 l -1.95117,2.01612 0.0715,8.34472 h -15.55053 v -13.48291 l 7.15405,-7.47973 10.27612,-0.13001 1.88623,-1.56409 v -9.81799 l -1.82104,-1.821166 h -18.86106 l -1.75634,1.691166 v 10.86889 H 143.40277 V 21.052681 Z m 11.06983,49.441279 v 10.42701 h 15.68212 l -0.0894,-10.42701 z"
   id="path3" />
<path
   class="st2"
   d="m 134.46524,85.952127 71.53784,0.003 c 5.71509,0 6.4867,-0.81701 6.4867,-6.53222 l 0.005,-71.618656 c 0,-5.71521 -0.56665,-6.302124 -6.28113,-6.302124 l -71.78186,-0.0023 c -5.71503,0 -6.39868,0.56836 -6.39868,6.283448 l 0.005,71.921142 c 0,5.71509 0.71197,6.24756 6.427,6.24756 z m 27.6648,-12.89453 v -10.427 h 15.59277 l 0.0892,10.427 z M 203.54752,5.146339 c 2.22094,0 4.02124,1.800415 4.02124,4.021485 0,2.221069 -1.8003,4.021484 -4.02124,4.021484 -2.22095,0 -4.02124,-1.800415 -4.02124,-4.021484 0,-2.22107 1.80029,-4.021485 4.02124,-4.021485 z m 0,68.098508 c 2.22094,0 4.02124,1.80054 4.02124,4.02149 0,2.22094 -1.8003,4.02148 -4.02124,4.02148 -2.22095,0 -4.02124,-1.80054 -4.02124,-4.02148 0,-2.22095 1.80029,-4.02149 4.02124,-4.02149 z m -60.14472,-52.192136 7.65735,-7.863403 h 38.63434 l 7.30932,6.935181 v 20.187988 l -6.97241,7.01611 h -10.47107 l -1.95129,2.01612 0.0715,8.34472 h -15.5505 v -13.48291 l 7.15405,-7.47973 10.27624,-0.13001 1.88611,-1.56408 v -9.818 l -1.82104,-1.821165 h -18.86109 l -1.75634,1.691165 v 10.86889 H 143.4028 Z M 136.7822,5.146339 c 2.22094,0 4.02124,1.800415 4.02124,4.021485 0,2.221069 -1.8003,4.021484 -4.02124,4.021484 -2.22101,0 -4.02124,-1.800415 -4.02124,-4.021484 0,-2.22107 1.80023,-4.021485 4.02124,-4.021485 z m 0,68.098508 c 2.22094,0 4.02124,1.80054 4.02124,4.02149 0,2.22094 -1.8003,4.02148 -4.02124,4.02148 -2.22101,0 -4.02124,-1.80054 -4.02124,-4.02148 0,-2.22095 1.80023,-4.02149 4.02124,-4.02149 z"
   id="path4" />
<path
   class="st3"
   d="m 251.49365,64.324197 c 0,-1.67139 1.08423,-3.06629 3.84351,-3.06629 l 32.91385,-0.005 c 2.75927,0 3.8435,1.3949 3.8435,3.06616 v 21.63574 h -40.60086 v -21.6311 z m 62.08328,-8.24561 v -21.63574 c 0,-1.67126 -1.08422,-3.06616 -3.8435,-3.06616 l -31.06677,0.005 c -2.7594,0 -3.84351,1.39489 -3.84351,3.06628 v 21.6311 z m -16.88354,-51.507809 0.17255,21.631099 h 40.42828 V 4.566139 c 0,-1.671264 -1.08423,-3.066162 -3.84351,-3.066162 l -32.91381,0.0045 c -2.7594,0 -3.84351,1.394897 -3.84351,3.066284 z m -45.19974,51.507809 h 18.83585 v -21.63574 c 0,-1.67126 -1.08411,-3.06616 -3.84351,-3.06616 l -11.14883,0.005 c -2.75928,0 -3.84351,1.39489 -3.84351,3.06628 v 21.6311 z m 85.67337,29.87671 0.1272,-21.63574 c 0,-1.67126 -1.08423,-3.06616 -3.84351,-3.06616 l -32.91381,0.005 c -2.7594,0 -3.84351,1.3949 -3.84351,3.06629 v 21.6311 h 40.47363 z M 292.09451,26.201877 V 4.566139 c 0,-1.671264 -1.08423,-3.066162 -3.8435,-3.066162 l -32.91385,0.0045 c -2.75928,0 -3.84351,1.394897 -3.84351,3.066284 v 21.631116 z m 45.19971,29.7815 -0.1272,-21.6355 c 0,-1.67139 -1.0841,-3.06641 -3.8435,-3.06641 l -11.14868,0.005 c -2.7594,0 -3.84351,1.39502 -3.84351,3.06617 v 21.72631 z"
   id="path5" />
<path
   class="st0"
   d="M 80.88586,0.0019 9.36523,0 C 2.01318,0 0,1.929382 0,8.975341 l 0.005,69.536198 c 0,7.01904 2.01905,8.94085 9.39258,8.94085 l 71.27832,0.003 c 7.33252,0 9.45276,-2.06726 9.45276,-9.21612 l 0.005,-69.243534 c 0,-7.144592 -1.90124,-8.993713 -9.24756,-8.993713 z"
   id="path6"
   inkscape:export-filename="empty-block.svg"
   inkscape:export-xdpi="96"
   inkscape:export-ydpi="96" />
<path
   class="st3"
   d="m 9.43204,84.452137 71.53784,0.003 c 5.71509,0 6.48669,-0.81702 6.48669,-6.53223 l 0.006,-71.618644 c 0,-5.71521 -0.56665,-6.302124 -6.28113,-6.302124 L 9.39958,-1.61e-4 c -5.71503,0 -6.39868,0.568359 -6.39868,6.283447 l 0.005,71.92114 c 0,5.71508 0.71197,6.24755 6.427,6.24755 z M 78.51431,3.646362 c 2.22095,0 4.02124,1.800415 4.02124,4.021485 0,2.221069 -1.80029,4.021484 -4.02124,4.021484 -2.22094,0 -4.02124,-1.800415 -4.02124,-4.021484 0,-2.22107 1.8003,-4.021485 4.02124,-4.021485 z m 0,68.098505 c 2.22095,0 4.02124,1.80054 4.02124,4.02148 0,2.22095 -1.80029,4.02149 -4.02124,4.02149 -2.22094,0 -4.02124,-1.80054 -4.02124,-4.02149 0,-2.22094 1.8003,-4.02148 4.02124,-4.02148 z M 11.74899,3.646362 c 2.22095,0 4.02124,1.800415 4.02124,4.021485 0,2.221069 -1.80029,4.021484 -4.02124,4.021484 -2.22101,0 -4.02124,-1.800415 -4.02124,-4.021484 0,-2.22107 1.80023,-4.021485 4.02124,-4.021485 z m 0,68.098505 c 2.22095,0 4.02124,1.80054 4.02124,4.02148 0,2.22095 -1.80029,4.02149 -4.02124,4.02149 -2.22101,0 -4.02124,-1.80054 -4.02124,-4.02149 0,-2.22094 1.80023,-4.02148 4.02124,-4.02148 z"
   id="path7" />
</svg>
