<?xml version="1.0" encoding="utf-8"?>
<!-- Generator: Adobe Illustrator 15.1.0, SVG Export Plug-In . SVG Version: 6.00 Build 0)  -->
<!DOCTYPE svg PUBLIC "-//W3C//DTD SVG 1.1//EN" "http://www.w3.org/Graphics/SVG/1.1/DTD/svg11.dtd">
<svg version="1.1" id="Layer_1" xmlns="http://www.w3.org/2000/svg" xmlns:xlink="http://www.w3.org/1999/xlink" x="0px" y="0px"
	 width="612px" height="792px" viewBox="-22.5 -113 612 792" enable-background="new -22.5 -113 612 792" xml:space="preserve">
<polygon points="543.642,14.521 32.556,14.521 19.881,27.708 19.881,539.021 33.676,550.614 544.979,551.479 545.604,551.479 
	557.786,538.281 557.786,27.661 "/>
<path fill="#FFFFFF" d="M461.01,261.085l-46.125,47.529H347.5l-6.489,7.04l0.466,55.099H238.534l-0.92-84.328l44.228-45.167
	l65.022-0.475l7.902-8.7l0.475-64.377l-7.39-8.984l-116.006,0.474l-8.945,7.894l-0.313,64.529l-104.043,0.151V137.5l45.65-45.186
	h249.742l44.722,45.651L461.01,261.085z M238.078,472.424h103.407v-67.992H238.078V472.424z"/>
<path fill="#F2CB01" d="M542.683,536.773l-1.024-506.722v-0.294L34.586,30.014l1.024,506.74v0.02H542.683z M344.331,475.268H235.232
	v-73.685h109.099V475.268z M509.763,45.828c10.92,0,19.799,8.88,19.799,19.809c0,10.92-8.879,19.799-19.799,19.799
	c-10.929,0-19.809-8.879-19.809-19.799C489.954,54.708,498.834,45.828,509.763,45.828z M509.763,483.173
	c10.92,0,19.799,8.88,19.799,19.809c0,10.919-8.879,19.8-19.799,19.8c-10.929,0-19.809-8.881-19.809-19.8
	C489.954,492.053,498.834,483.173,509.763,483.173z M115.698,136.305l47.321-46.837h252.113l46.354,47.32l0.009,0.56l2.381,124.875
	l-47.797,49.237H348.75l-4.895,5.294l0.483,56.846H235.725l-0.978-88.332l45.898-46.856l64.946-0.473l6.328-6.955l0.475-62.271
	l-5.892-7.144l-113.576,0.475l-7.181,6.337l-0.323,66.076l-109.725,0.162V136.305z M69.572,45.828
	c10.92,0,19.799,8.88,19.799,19.809c0,10.92-8.879,19.799-19.799,19.799c-10.928,0-19.809-8.879-19.809-19.799
	C49.764,54.708,58.644,45.828,69.572,45.828z M69.572,483.173c10.92,0,19.799,8.88,19.799,19.809c0,10.919-8.879,19.8-19.799,19.8
	c-10.928,0-19.809-8.881-19.809-19.8C49.764,492.053,58.644,483.173,69.572,483.173z"/>
<path fill="#967D12" d="M31.739,27.13l-7.172-0.189l7.172-7.467V27.13z M31.739,29.977l-9.013-0.236v507.176l10.037-0.123
	L31.739,29.977z M32.764,546.136v-6.497l-7.609,0.095L32.764,546.136z M35.611,547.769l507.072,0.863v-9.013H35.611V547.769z
	 M545.538,539.619h-0.009v7.742l7.466-8.084l-7.457,0.285V539.619z M541.658,17.369H34.586v9.8l507.072-0.256V17.369z
	 M544.504,19.209v7.931l8.329-0.2L544.504,19.209z M544.504,29.985l1.025,506.731l9.41-0.361V29.739L544.504,29.985z
	 M509.764,48.675c-9.354,0-16.963,7.609-16.962,16.962c0,9.345,7.607,16.954,16.962,16.954c9.346,0,16.953-7.609,16.953-16.954
	C526.717,56.284,519.108,48.675,509.764,48.675z M69.573,48.675c-9.354,0-16.963,7.609-16.962,16.962
	c0,9.345,7.608,16.954,16.962,16.954c9.345,0,16.953-7.609,16.953-16.954C86.526,56.284,78.918,48.675,69.573,48.675z
	 M69.573,486.019c-9.354,0-16.963,7.608-16.962,16.963c0,9.345,7.608,16.953,16.962,16.953c9.345,0,16.953-7.608,16.953-16.953
	C86.526,493.627,78.918,486.019,69.573,486.019z M509.764,486.019c-9.354,0-16.963,7.608-16.962,16.963
	c0,9.345,7.607,16.953,16.962,16.953c9.346,0,16.953-7.608,16.953-16.953C526.717,493.627,519.108,486.019,509.764,486.019z"/>
</svg>
