<?xml version="1.0" encoding="utf-8"?>
<!-- Generator: Adobe Illustrator 22.0.0, SVG Export Plug-In . SVG Version: 6.00 Build 0)  -->
<svg version="1.1" id="Capa_1" xmlns="http://www.w3.org/2000/svg" xmlns:xlink="http://www.w3.org/1999/xlink" x="0px" y="0px"
	 viewBox="0 0 841.8897705 1190.5511475" style="enable-background:new 0 0 841.8897705 1190.5511475;" xml:space="preserve">
<style type="text/css">
	.st0{fill:#020203;}
	.st1{fill:#FFFFFF;}
	.st2{fill:#FFDD04;}
	.st3{fill:#C15525;}
</style>
<path class="st0" d="M589.59198,80.3506317c0-1.6712646-1.0842285-3.0661621-3.8435059-3.0661621l-32.9138184,0.0045166
	c-2.2043457,0-3.3261719,0.8955688-3.6936035,2.1056519h-4.8974609c-0.3662109-1.2122803-1.4880371-2.1101685-3.6948242-2.1101685
	l-32.9137878,0.0045166c-2.7592773,0-3.8435059,1.3948364-3.8435059,3.0661621l-0.0002441,21.6311035
	c0,1.3449707,0.7202148,2.4972534,2.4321289,2.9013672v2.4430542c-1.7119141,0.4041748-2.4318848,1.5563354-2.4318848,2.9011841
	l-0.0002441,21.6311035c0,1.3449707,0.7202148,2.4972534,2.4321289,2.9013672v2.4430542
	c-1.7046509,0.4024506-2.4257507,1.5465546-2.4318542,2.8840485c-0.0000305,0.0057068-0.0002747,21.6482391-0.0002747,21.6482391
	c0,1.6713867,1.0842285,3.0662842,3.8435059,3.0662842l32.9137878,0.0045166c2.7592773,0,3.8435059-1.3948975,3.8435059-3.0661621
	v-0.0045166h0.0002441h4.5986328c0,1.6713257,1.0842285,3.0661621,3.8435059,3.0661621l32.9138184,0.0045166
	c2.7592773,0,3.8435059-1.3948975,3.8435059-3.0661621l0.0002441-21.6402588c0-1.367981-0.7446289-2.5370483-2.5214844-2.9212646
	v-2.3272705c1.6848145-0.4121704,2.394043-1.5578003,2.394043-2.8929443l0.0002441-21.8302002
	c0-1.3352051-0.7094727-2.480835-2.3942871-2.8930054v-2.3272095c1.7489014-0.378273,2.4977417-1.5169525,2.520752-2.8573074
	C589.5915527,102.033577,589.59198,80.3506317,589.59198,80.3506317z"/>
<path class="st0" d="M462.7579041,77.6863251c-0.934082-0.3237915-2.2802734-0.3995361-4.2460938-0.3995361l-71.8155518-0.0023193
	c-0.0089111,0-2.7276611,0.050415-3.616333,0.2286987c-4.4233398,0.6835327-5.7489014,3.0317993-5.7489014,8.7466431
	l0.0047607,69.5362549c0,7.0189819,2.019043,8.9408569,9.3925781,8.9408569l71.2783203,0.0028076
	c7.3327637,0,9.4528809-2.0672607,9.4528809-9.2160645l0.0048828-69.2435303
	C467.464447,80.9202118,466.3941345,78.5407562,462.7579041,77.6863251z"/>
<path class="st1" d="M403.3580017,88.9738007h38.6342773l7.3093262,6.9351807v20.1879883l-6.9724121,7.0161133h-10.4711914
	l-1.9511719,2.0161133l0.0715332,8.3447266h-15.5505371v-13.4829102l7.1540527-7.4797363l10.276123-0.1300049l1.8862305-1.5640869
	v-9.8179932l-1.8210449-1.821167h-18.861084l-1.7563477,1.6911621v10.8688965H395.700531V96.837204L403.3580017,88.9738007z
	 M414.4278259,138.4150848v10.427002h15.6821289l-0.0893555-10.427002H414.4278259z"/>
<path class="st2" d="M386.7630005,161.7366486l71.5378418,0.0031738c5.7150879,0,6.4866943-0.8170166,6.4866943-6.5322266
	l0.0054932-71.6186523c0-5.71521-0.5666504-6.302124-6.2811279-6.302124l-71.7818604-0.0023193
	c-5.7150269,0-6.3986816,0.5683594-6.3986816,6.2834473l0.0046387,71.9211426
	C380.3359985,161.2041779,381.0479736,161.7366486,386.7630005,161.7366486z M414.4277954,148.8421173v-10.427002h15.5927734
	l0.0892334,10.427002H414.4277954z M455.8452759,80.9308624c2.2209473,0,4.0212402,1.800415,4.0212402,4.0214844
	s-1.800293,4.0214844-4.0212402,4.0214844s-4.0212402-1.800415-4.0212402-4.0214844S453.6243286,80.9308624,455.8452759,80.9308624z
	 M455.8452759,149.0293732c2.2209473,0,4.0212402,1.8005371,4.0212402,4.0214844s-1.800293,4.0214844-4.0212402,4.0214844
	s-4.0212402-1.8005371-4.0212402-4.0214844S453.6243286,149.0293732,455.8452759,149.0293732z M395.7005615,96.8372345
	l7.6573486-7.8634033h38.6343384l7.3093262,6.9351807v20.1879883l-6.9724121,7.0161133h-10.4710693l-1.9512939,2.0161133
	l0.0715332,8.3447266h-15.5505371v-13.4829102l7.1540527-7.4797363l10.2762451-0.1300049l1.8861084-1.5640869v-9.8179932
	l-1.8210449-1.821167h-18.861084l-1.7563477,1.6911621v10.8688965h-15.6051636V96.8372345z M389.0799561,80.9308624
	c2.2209473,0,4.0212402,1.800415,4.0212402,4.0214844s-1.800293,4.0214844-4.0212402,4.0214844
	c-2.2210083,0-4.0212402-1.800415-4.0212402-4.0214844S386.8589478,80.9308624,389.0799561,80.9308624z M389.0799561,149.0293732
	c2.2209473,0,4.0212402,1.8005371,4.0212402,4.0214844s-1.800293,4.0214844-4.0212402,4.0214844
	c-2.2210083,0-4.0212402-1.8005371-4.0212402-4.0214844S386.8589478,149.0293732,389.0799561,149.0293732z"/>
<path class="st3" d="M503.7914124,140.1087189c0-1.6713867,1.0842285-3.0662842,3.8435059-3.0662842l32.9138489-0.0045166
	c2.7592773,0,3.8435059,1.3948975,3.8435059,3.0661621v21.6357422h-40.6008606V140.1087189z M565.8746948,131.8631134v-21.6357422
	c0-1.6712646-1.0842285-3.0661621-3.8435059-3.0661621l-31.0667725,0.0045166c-2.7593994,0-3.8435059,1.3948975-3.8435059,3.0662842
	v21.6311035H565.8746948z M548.9911499,80.3553009l0.1725464,21.6311035H589.59198V80.3506622
	c0-1.6712646-1.0842285-3.0661621-3.8435059-3.0661621l-32.9138184,0.0045166
	C550.0752563,77.2890167,548.9911499,78.6839142,548.9911499,80.3553009z M503.7914124,131.8631134h18.8358459v-21.6357422
	c0-1.6712646-1.0841064-3.0661621-3.8435059-3.0661621l-11.1488342,0.0045166c-2.7592773,0-3.8435059,1.3948975-3.8435059,3.0662842
	V131.8631134z M589.4647827,161.7398224l0.1271973-21.6357422c0-1.6712646-1.0842285-3.0661621-3.8435059-3.0661621
	l-32.9138184,0.0045166c-2.7593994,0-3.8435059,1.3948975-3.8435059,3.0662842v21.6311035H589.4647827z M544.3922729,101.9864044
	V80.3506622c0-1.6712646-1.0842285-3.0661621-3.8435059-3.0661621l-32.9138489,0.0045166
	c-2.7592773,0-3.8435059,1.3948975-3.8435059,3.0662842v21.6311035H544.3922729z M589.59198,131.7678986l-0.1271973-21.635498
	c0-1.6713867-1.0841064-3.0664063-3.8435059-3.0664063l-11.1486816,0.0046387c-2.7593994,0-3.8435059,1.3950195-3.8435059,3.0661621
	v21.7263184L589.59198,131.7678986z"/>
<path class="st0" d="M333.1836243,75.7864227l-71.5206299-0.0018921c-7.3520508,0-9.3652344,1.9293823-9.3652344,8.9753418
	l0.0048828,69.5361938c0,7.019043,2.019043,8.9408569,9.3925781,8.9408569l71.2783203,0.0028687
	c7.3325195,0,9.4527588-2.0672607,9.4527588-9.2161255l0.0048828-69.2435303
	C342.4311829,77.6355438,340.5299377,75.7864227,333.1836243,75.7864227z"/>
<path class="st3" d="M261.7297974,160.2366638l71.5378418,0.0031738c5.7150879,0,6.4866943-0.8170166,6.4866943-6.5322266
	l0.0054932-71.6186447c0-5.71521-0.5666504-6.302124-6.2811279-6.302124l-71.7818604-0.0023193
	c-5.7150269,0-6.3986816,0.5683594-6.3986816,6.2834473l0.0046387,71.9211349
	C255.3027954,159.7041931,256.0147705,160.2366638,261.7297974,160.2366638z M330.8120728,79.4308853
	c2.2209473,0,4.0212402,1.800415,4.0212402,4.0214844s-1.800293,4.0214844-4.0212402,4.0214844
	s-4.0212402-1.800415-4.0212402-4.0214844S328.5911255,79.4308853,330.8120728,79.4308853z M330.8120728,147.5293884
	c2.2209473,0,4.0212402,1.8005371,4.0212402,4.0214844s-1.800293,4.0214844-4.0212402,4.0214844
	s-4.0212402-1.8005371-4.0212402-4.0214844S328.5911255,147.5293884,330.8120728,147.5293884z M264.0467529,79.4308853
	c2.2209473,0,4.0212402,1.800415,4.0212402,4.0214844s-1.800293,4.0214844-4.0212402,4.0214844
	c-2.2210083,0-4.0212402-1.800415-4.0212402-4.0214844S261.8257446,79.4308853,264.0467529,79.4308853z M264.0467529,147.5293884
	c2.2209473,0,4.0212402,1.8005371,4.0212402,4.0214844s-1.800293,4.0214844-4.0212402,4.0214844
	c-2.2210083,0-4.0212402-1.8005371-4.0212402-4.0214844S261.8257446,147.5293884,264.0467529,147.5293884z"/>
</svg>
